<svg width="52" height="52" viewBox="0 0 52 52" fill="none" xmlns="http://www.w3.org/2000/svg">
<rect width="52" height="52" rx="2" fill="white"/>
<path fill-rule="evenodd" clip-rule="evenodd" d="M31.1026 23.9115C31.1026 24.4526 31.536 24.8854 32.0776 24.8854C32.6193 24.8854 33.0635 24.4526 33.0635 23.9115C33.0635 23.3704 32.6193 22.9268 32.0776 22.9268C31.536 22.9268 31.1026 23.3704 31.1026 23.9115ZM29.001 30.4476C28.2318 31.2159 27.1701 31.692 26.0001 31.692C24.8626 31.692 23.801 31.2483 22.9885 30.4476C22.1868 29.636 21.7426 28.5755 21.7426 27.4392C21.7318 26.3138 22.176 25.2533 22.9776 24.4417C23.7901 23.6301 24.8626 23.1865 26.0001 23.1865C27.1376 23.1865 28.2101 23.6301 29.0118 24.4309C29.8135 25.2425 30.2576 26.3138 30.2576 27.4392C30.2468 28.6188 29.7701 29.6793 29.001 30.4476ZM26.0001 24.8097C25.296 24.8097 24.6351 25.0802 24.126 25.5888C23.6276 26.0866 23.3568 26.7467 23.3676 27.4284V27.4392C23.3676 28.1426 23.6385 28.8027 24.1368 29.3005C24.6351 29.7983 25.296 30.0688 26.0001 30.0688C27.4518 30.0688 28.6218 28.8893 28.6326 27.4392C28.6326 26.7359 28.3618 26.0758 27.8635 25.578C27.3651 25.0802 26.7043 24.8097 26.0001 24.8097Z" fill="#8A8A8A"/>
<path opacity="0.4" d="M31.8934 19.7561L31.7851 19.518C31.4926 18.9012 31.1567 18.187 30.9509 17.7758C30.4526 16.8019 29.5967 16.2608 28.5459 16.25H23.4434C22.3926 16.2608 21.5476 16.8019 21.0492 17.7758C20.8326 18.2087 20.4642 18.9878 20.1609 19.6262L20.0959 19.7561C20.0634 19.8427 19.9767 19.886 19.8901 19.886C17.2792 19.886 15.1667 22.0069 15.1667 24.6041V31.0319C15.1667 33.629 17.2792 35.75 19.8901 35.75H32.1101C34.7101 35.75 36.8334 33.629 36.8334 31.0319V24.6041C36.8334 22.0069 34.7101 19.886 32.1101 19.886C32.0126 19.886 31.9367 19.8319 31.8934 19.7561Z" fill="#8A8A8A"/>
</svg>
