<?xml version="1.0" standalone="no"?>
<!DOCTYPE svg PUBLIC "-//W3C//DTD SVG 1.1//EN" "http://www.w3.org/Graphics/SVG/1.1/DTD/svg11.dtd" >
<svg xmlns="http://www.w3.org/2000/svg" xmlns:xlink="http://www.w3.org/1999/xlink" version="1.1">
<metadata>
Created by FontForge 20170731 at Sat Feb  6 14:49:27 2021
 By Aleksey,,,
</metadata>
<defs>
<font id="FactorA-Regular" horiz-adv-x="495" >
  <font-face 
    font-family="Factor A"
    font-weight="400"
    font-stretch="normal"
    units-per-em="2048"
    panose-1="0 0 0 0 0 0 0 0 0 0"
    ascent="1638"
    descent="-410"
    x-height="1008"
    cap-height="1536"
    bbox="-100 -467 2216 1993"
    underline-thickness="108"
    underline-position="-593"
    unicode-range="U+0020-2013"
  />
<missing-glyph horiz-adv-x="1343" 
 />
    <glyph glyph-name="i_f" unicode="fi" horiz-adv-x="1267" 
d="M1133 1354q0 -47 -33 -79t-80 -32t-79 32t-32 79q0 49 31.5 79.5t79.5 30.5t80.5 -30.5t32.5 -79.5zM1100 0h-160v1008h160v-1008zM795 1008v-140h-379v-868h-162v868h-244v39l86 101h158v200q0 156 98 250q94 94 242 94q90 0 164 -30l-35 -140q-70 25 -119 25
q-90 0 -139 -49.5t-49 -147.5v-202h379z" />
    <glyph glyph-name="l_f" unicode="fl" horiz-adv-x="1267" 
d="M1100 0h-160v1536h160v-1536zM795 1008v-140h-379v-868h-162v868h-244v39l86 101h158v200q0 156 98 250q94 94 242 94q90 0 164 -30l-35 -140q-70 25 -119 25q-90 0 -139 -49.5t-49 -147.5v-202h379z" />
    <glyph glyph-name="_061" unicode="ff" horiz-adv-x="1488" 
d="M416 1210v-202h516v200q0 156 98 250q94 94 242 94q90 0 164 -30l-37 -140q-63 25 -117 25q-90 0 -140 -49.5t-50 -147.5v-202h381v-140h-381v-868h-160v868h-516v-868h-162v868h-244v39l86 101h158v200q0 156 98 250q94 94 242 94q90 0 164 -30l-35 -140q-70 25 -119 25
q-90 0 -139 -49.5t-49 -147.5z" />
    <glyph glyph-name=".notdef" horiz-adv-x="1343" 
 />
    <glyph glyph-name=".null" horiz-adv-x="0" 
 />
    <glyph glyph-name="nonmarkingreturn" horiz-adv-x="682" 
 />
    <glyph glyph-name="space" unicode=" " horiz-adv-x="450" 
 />
    <glyph glyph-name="exclam" unicode="!" horiz-adv-x="651" 
d="M258 461l-27 1075h189l-27 -1075h-135zM326 -18q-52 0 -86.5 32.5t-34.5 85.5q0 51 35 84t86 33q54 0 87 -33t33 -84q0 -54 -33 -86t-87 -32z" />
    <glyph glyph-name="comma" unicode="," horiz-adv-x="448" 
d="M354 205l-159 -512h-132l97 512h194z" />
    <glyph glyph-name="hyphen" unicode="-" horiz-adv-x="823" 
d="M721 524h-619v154h619v-154z" />
    <glyph glyph-name="period" unicode="." horiz-adv-x="460" 
d="M229 -18q-52 0 -86 32.5t-34 85.5q0 51 34.5 84t85.5 33q54 0 87.5 -33t33.5 -84q0 -54 -33.5 -86t-87.5 -32z" />
    <glyph glyph-name="zero" unicode="0" horiz-adv-x="1396" 
d="M1251 772q0 -369 -151 -579q-153 -209 -402 -209t-399 209q-154 210 -154 579q0 367 154 574q150 206 399 206t402 -206q151 -207 151 -574zM698 143q176 0 275.5 167.5t99.5 461.5q0 290 -99.5 455.5t-275.5 165.5q-178 0 -277 -165.5t-99 -455.5q0 -295 99 -462
t277 -167z" />
    <glyph glyph-name="one" unicode="1" horiz-adv-x="761" 
d="M524 0h-170v1194h-278v100q132 8 217.5 70.5t105.5 171.5h125v-1536z" />
    <glyph glyph-name="two" unicode="2" horiz-adv-x="1163" 
d="M348 162h742v-162h-977v143l462 480q151 151 221 258t70 223q0 128 -84 208.5t-215 80.5q-116 0 -211 -68q-98 -73 -118 -225l-168 35q24 136 98 231.5t178 140.5t229 45q206 0 336.5 -122t130.5 -322q0 -160 -88 -285q-82 -116 -241 -282z" />
    <glyph glyph-name="three" unicode="3" horiz-adv-x="1247" 
d="M606 -16q-199 0 -342 104q-144 102 -184 326l170 43q28 -160 121.5 -237t234.5 -77t242 76q98 73 98 221q0 131 -79.5 204t-231.5 73h-148v157h134q135 0 210.5 69t75.5 192q0 121 -79.5 190.5t-213.5 69.5q-101 0 -198 -60q-96 -59 -123 -200l-166 39q30 123 104.5 210
t173.5 127.5t216 40.5q210 0 335 -110q127 -115 127 -295q0 -110 -56.5 -197t-162.5 -143q123 -41 191.5 -138.5t68.5 -232.5q0 -202 -148 -327t-370 -125z" />
    <glyph glyph-name="four" unicode="4" horiz-adv-x="1236" 
d="M973 0h-172v371h-748v149l695 1016h225v-1008h211v-157h-211v-371zM801 1348l-565 -820h565v820z" />
    <glyph glyph-name="five" unicode="5" horiz-adv-x="1226" 
d="M1135 498q0 -225 -148.5 -369.5t-390.5 -144.5q-198 0 -337.5 99.5t-182.5 293.5l170 49q35 -145 130.5 -214t223.5 -69q151 0 256 97q100 93 100 256q0 150 -96 254q-98 98 -248 98q-99 0 -175.5 -33t-121.5 -94l-137 43l131 772h764v-156h-627l-79 -452q119 71 268 71
q219 0 359.5 -140.5t140.5 -360.5z" />
    <glyph glyph-name="six" unicode="6" horiz-adv-x="1208" 
d="M600 -16q-144 0 -260.5 59t-185 170t-68.5 254q0 192 119 367l463 702h196l-393 -590q83 27 160 27q217 0 358 -134.5t141 -349.5q0 -149 -69 -264.5t-189.5 -178t-271.5 -62.5zM602 145q147 0 252 97q98 94 98 247q0 150 -98 244q-103 92 -250 92q-71 0 -136 -25.5
t-110 -70.5q-96 -101 -96 -252q0 -146 96 -239t244 -93z" />
    <glyph glyph-name="seven" unicode="7" horiz-adv-x="1083" 
d="M338 0h-184l686 1378h-789v158h979v-141z" />
    <glyph glyph-name="eight" unicode="8" horiz-adv-x="1314" 
d="M657 -16q-148 0 -268 51t-194 154.5t-74 242.5q0 145 84 250t217 143q-101 33 -163 121.5t-62 208.5q0 180 131.5 288.5t328.5 108.5q199 0 331 -108.5t132 -288.5q0 -119 -62.5 -206t-164.5 -124q134 -38 217.5 -142.5t83.5 -250.5q0 -105 -43 -190.5t-116.5 -141.5
t-170.5 -86t-207 -30zM948 1145q0 113 -82.5 181.5t-208.5 68.5q-124 0 -206 -68.5t-82 -181.5q0 -114 83 -184t205 -70q126 0 208.5 69.5t82.5 184.5zM1018 440q0 138 -103.5 217.5t-257.5 79.5q-151 0 -254.5 -80t-103.5 -217t103 -216t255 -79q154 0 257.5 78.5
t103.5 216.5z" />
    <glyph glyph-name="nine" unicode="9" horiz-adv-x="1208" 
d="M608 1552q144 0 260.5 -59t185 -170t68.5 -254q0 -193 -118 -367l-463 -702h-197l393 590q-83 -27 -159 -27q-217 0 -358.5 134.5t-141.5 349.5q0 149 69 264.5t189.5 178t271.5 62.5zM606 1391q-148 0 -250 -97q-100 -93 -100 -247q0 -152 100 -242q98 -94 248 -94
q71 0 136 25.5t110 70.5q96 101 96 252q0 146 -96 239t-244 93z" />
    <glyph glyph-name="colon" unicode=":" horiz-adv-x="460" 
d="M229 -18q-52 0 -86 32.5t-34 85.5q0 51 34.5 84t85.5 33q54 0 87.5 -33t33.5 -84q0 -54 -33.5 -86t-87.5 -32zM229 741q-52 0 -86 33t-34 86q0 51 34.5 84t85.5 33q54 0 87.5 -33t33.5 -84q0 -54 -33.5 -86.5t-87.5 -32.5z" />
    <glyph glyph-name="semicolon" unicode=";" horiz-adv-x="460" 
d="M342 205l-160 -512h-131l96 512h195zM229 741q-52 0 -86 33t-34 86q0 51 34.5 84t85.5 33q54 0 87.5 -33t33.5 -84q0 -54 -33.5 -86.5t-87.5 -32.5z" />
    <glyph glyph-name="question" unicode="?" horiz-adv-x="1107" 
d="M559 1552q201 0 328 -105t127 -286q0 -147 -70 -229t-153 -141q-80 -57 -154 -115q-70 -55 -70 -146v-69h-161v76q0 124 69 196q67 71 150 129q74 52 151 123q68 65 68 174q0 114 -80.5 178t-208.5 64q-135 0 -221.5 -70.5t-116.5 -200.5l-158 35q41 183 174.5 285
t325.5 102zM498 -18q-52 0 -86.5 32.5t-34.5 85.5q0 51 35 84t86 33t84.5 -33t33.5 -84q0 -53 -33 -85.5t-85 -32.5z" />
    <glyph glyph-name="A" unicode="A" horiz-adv-x="1427" 
d="M203 0h-174l587 1536h193l590 -1536h-185l-200 530h-611zM709 1337l-246 -649h491z" />
    <glyph glyph-name="B" unicode="B" horiz-adv-x="1372" 
d="M782 0h-549v1536h515q197 0 314.5 -104.5t117.5 -282.5q0 -122 -58.5 -209t-163.5 -131q140 -38 216.5 -138t76.5 -243q0 -196 -127.5 -312t-341.5 -116zM735 1384h-327v-514h333q121 0 193 72.5t72 190.5q0 115 -74 183t-197 68zM772 717h-364v-565h366q137 0 218 74
t81 202q0 131 -82.5 210t-218.5 79z" />
    <glyph glyph-name="C" unicode="C" horiz-adv-x="1626" 
d="M301 768q0 -130 38.5 -243.5t109.5 -198.5t177.5 -134t235.5 -49q206 0 344.5 115.5t173.5 294.5l168 -45q-50 -236 -235.5 -381t-452.5 -145q-168 0 -308 60.5t-233.5 166.5t-145.5 250t-52 309q0 221 88.5 398t259 281.5t395.5 104.5q263 0 440 -141t228 -375l-166 -47
q-38 175 -168 287q-133 115 -336 115q-168 0 -297.5 -84.5t-196.5 -225t-67 -313.5z" />
    <glyph glyph-name="D" unicode="D" horiz-adv-x="1574" 
d="M688 0h-455v1536h455q169 0 312 -56t242.5 -155.5t155.5 -242.5t56 -312q0 -227 -95.5 -402t-270 -271.5t-400.5 -96.5zM688 1376h-280v-1216h280q262 0 424 166.5t162 443.5t-162 441.5t-424 164.5z" />
    <glyph glyph-name="E" unicode="E" horiz-adv-x="1263" 
d="M1200 0h-967v1536h947v-160h-772v-485h550v-160h-550v-571h792v-160z" />
    <glyph glyph-name="F" unicode="F" horiz-adv-x="1200" 
d="M408 0h-175v1536h934v-160h-759v-506h557v-157h-557v-713z" />
    <glyph glyph-name="G" unicode="G" horiz-adv-x="1662" 
d="M301 766q0 -178 67.5 -319t196.5 -222.5t297 -81.5q226 0 372 127t146 330h-682v156h861v-88q0 -308 -192 -497t-505 -189q-163 0 -302 60.5t-235 165t-150 249t-54 309.5q0 166 53 310t148.5 249.5t235.5 166t306 60.5q253 0 433 -131t235 -342l-168 -47
q-41 157 -170 256q-133 103 -330 103q-170 0 -299 -82t-196.5 -223.5t-67.5 -319.5z" />
    <glyph glyph-name="H" unicode="H" horiz-adv-x="1701" 
d="M408 0h-175v1536h175v-641h888v641h174v-1536h-174v735h-888v-735z" />
    <glyph glyph-name="I" unicode="I" horiz-adv-x="641" 
d="M408 0h-175v1536h175v-1536z" />
    <glyph glyph-name="J" unicode="J" horiz-adv-x="1226" 
d="M528 145q145 0 230.5 86.5t85.5 223.5v921h-684v160h858v-1079q0 -208 -135.5 -340.5t-354.5 -132.5q-202 0 -330 108.5t-153 286.5l172 45q12 -125 95.5 -202t215.5 -77z" />
    <glyph glyph-name="K" unicode="K" horiz-adv-x="1429" 
d="M627 727h-219v-727h-175v1536h175v-647h225l553 647h209l-619 -723l635 -813h-209z" />
    <glyph glyph-name="L" unicode="L" horiz-adv-x="1193" 
d="M1155 0h-922v1536h175v-1376h747v-160z" />
    <glyph glyph-name="M" unicode="M" horiz-adv-x="1921" 
d="M401 0h-168v1536h187l545 -694l536 694h187v-1536h-168v1298l-541 -692h-39l-539 688v-1294z" />
    <glyph glyph-name="N" unicode="N" horiz-adv-x="1685" 
d="M399 0h-166v1536h187l864 -1280v1280h168v-1536h-186l-867 1284v-1284z" />
    <glyph glyph-name="O" unicode="O" horiz-adv-x="1736" 
d="M121 768q0 225 94 404t264.5 279.5t388.5 100.5q164 0 304 -59t237 -162t152 -248.5t55 -314.5q0 -168 -55 -313.5t-152 -249t-237 -162.5t-304 -59q-218 0 -388.5 101t-264.5 279.5t-94 403.5zM1436 768q0 277 -157 450t-411 173q-257 0 -412 -172.5t-155 -450.5
t155 -450.5t412 -172.5q254 0 411 173t157 450z" />
    <glyph glyph-name="P" unicode="P" horiz-adv-x="1372" 
d="M408 0h-175v1536h558q226 0 364.5 -130t138.5 -333q0 -201 -139 -334t-364 -133h-383v-606zM791 1376h-383v-610h383q151 0 239 85t88 222t-87.5 220t-239.5 83z" />
    <glyph glyph-name="Q" unicode="Q" horiz-adv-x="1736" 
d="M121 768q0 225 94 404t264.5 279.5t388.5 100.5q164 0 304 -59t237 -162t152 -248.5t55 -314.5q0 -218 -91.5 -396t-252.5 -278l203 -241l-123 -105l-230 277q-115 -41 -254 -41q-218 0 -388.5 101t-264.5 279.5t-94 403.5zM301 768q0 -278 155 -450.5t412 -172.5
q59 0 140 15l-346 418l122 102l381 -457q128 75 199.5 218t71.5 327q0 277 -157 450t-411 173q-257 0 -412 -172.5t-155 -450.5z" />
    <glyph glyph-name="R" unicode="R" horiz-adv-x="1431" 
d="M408 0h-175v1536h560q203 0 331 -119q129 -120 129 -311q0 -155 -91.5 -264t-237.5 -142l465 -700h-201l-449 676h-331v-676zM791 1376h-383v-540h374q130 0 211.5 75.5t81.5 194.5q0 122 -77.5 196t-206.5 74z" />
    <glyph glyph-name="S" unicode="S" horiz-adv-x="1357" 
d="M1206 1153l-166 -45q-21 131 -120.5 210t-251.5 79q-161 0 -255 -64.5t-94 -179.5q0 -54 23.5 -96.5t52 -68t92 -49.5t101.5 -33.5t124 -29.5q11 -3 17 -4q63 -14 110 -26t103.5 -32t96.5 -42t80 -56t64.5 -74t40 -94.5t15.5 -119.5q0 -206 -152.5 -325t-402.5 -119
q-111 0 -204 23t-161.5 64t-118 98.5t-76.5 125.5t-34 145l172 45q14 -154 125.5 -249t302.5 -95q160 0 265.5 72.5t105.5 202.5q0 57 -20.5 101.5t-51.5 73.5t-85.5 52.5t-103.5 36.5t-124 29q-72 16 -110.5 25t-104 29.5t-102.5 40t-84 53t-71.5 72t-42.5 93.5t-18 121
q0 126 70.5 220t189.5 141.5t269 47.5q217 0 361 -107.5t173 -291.5z" />
    <glyph glyph-name="T" unicode="T" horiz-adv-x="1241" 
d="M707 0h-175v1376h-491v160h1159v-160h-493v-1376z" />
    <glyph glyph-name="U" unicode="U" horiz-adv-x="1568" 
d="M784 145q182 0 293 111.5t111 304.5v975h174v-973q0 -265 -160.5 -422t-417.5 -157t-417 157t-160 422v973h174v-975q0 -194 111 -305t292 -111z" />
    <glyph glyph-name="V" unicode="V" horiz-adv-x="1386" 
d="M584 0l-549 1536h184l477 -1339l475 1339h181l-553 -1536h-215z" />
    <glyph glyph-name="W" unicode="W" horiz-adv-x="1931" 
d="M532 223l410 821h43l414 -819l293 1311h174l-342 -1536h-191l-370 735l-367 -735h-188l-342 1536h174z" />
    <glyph glyph-name="X" unicode="X" horiz-adv-x="1355" 
d="M39 1536h205l436 -621l424 621h196l-524 -758l547 -778h-205l-454 647l-439 -647h-190l530 786z" />
    <glyph glyph-name="Y" unicode="Y" horiz-adv-x="1337" 
d="M758 0h-174v680l-568 856h205l455 -690l450 690h197l-565 -856v-680z" />
    <glyph glyph-name="Z" unicode="Z" horiz-adv-x="1261" 
d="M86 1376v160h1135v-39l-904 -1337h873v-160h-1147v39l901 1337h-858z" />
    <glyph glyph-name="a" unicode="a" horiz-adv-x="1087" 
d="M940 0h-147l-5 195q-63 -99 -163.5 -155t-216.5 -56q-143 0 -230.5 75t-87.5 203q0 145 111 219q107 70 291 117l292 68q-10 108 -79.5 164.5t-180.5 56.5q-113 0 -186.5 -52t-99.5 -151l-148 29q29 143 148 227t292 84q189 0 299.5 -103.5t110.5 -281.5v-639zM256 276
q0 -70 46.5 -112.5t127.5 -42.5q144 0 250 106t106 287v23l-294 -72q-120 -31 -178 -74t-58 -115z" />
    <glyph glyph-name="b" unicode="b" horiz-adv-x="1271" 
d="M322 0h-154v1536h160v-696q64 88 158 136t208 48q210 0 350 -147t140 -371q0 -226 -140 -374t-350 -148q-114 0 -209 49.5t-159 138.5zM672 877q-153 0 -248 -103q-96 -107 -96 -268q0 -163 96 -270q94 -105 248 -105q149 0 248 105q96 107 96 270q0 161 -96 268
q-100 103 -248 103z" />
    <glyph glyph-name="c" unicode="c" horiz-adv-x="1128" 
d="M256 510q0 -165 96 -272q94 -107 244 -107q127 0 210 67.5t107 180.5l154 -27q-27 -157 -156 -262q-127 -106 -315 -106q-220 0 -364 149.5t-144 376.5q0 222 145 368t363 146q182 0 305.5 -96t159.5 -258l-156 -29q-27 108 -107.5 172t-199.5 64q-150 0 -244 -101
q-98 -101 -98 -266z" />
    <glyph glyph-name="d" unicode="d" horiz-adv-x="1271" 
d="M1104 1536v-1536h-154l-4 164q-64 -86 -157.5 -133t-204.5 -47q-214 0 -355 147.5t-141 374.5q0 224 141 371t355 147q109 0 202.5 -46.5t157.5 -129.5v688h160zM600 877q-151 0 -246 -103q-98 -104 -98 -268q0 -166 98 -270q94 -105 246 -105q153 0 248.5 104.5
t95.5 270.5q0 165 -95.5 268t-248.5 103z" />
    <glyph glyph-name="e" unicode="e" horiz-adv-x="1167" 
d="M88 510q0 223 143 368.5t361 145.5q216 0 350 -131q135 -132 135 -340q0 -1 -6 -82h-819q13 -169 103.5 -256.5t240.5 -87.5q133 0 217 56.5t111 156.5l147 -29q-32 -148 -162 -237.5t-313 -89.5q-230 0 -369 147.5t-139 378.5zM592 887q-136 0 -230 -79.5t-106 -203.5
h662q-8 125 -99 204t-227 79z" />
    <glyph glyph-name="f" unicode="f" horiz-adv-x="813" 
d="M795 1008v-140h-379v-868h-162v868h-244v39l86 101h158v200q0 156 98 250q94 94 242 94q90 0 164 -30l-35 -140q-70 25 -119 25q-90 0 -139 -49.5t-49 -147.5v-202h379z" />
    <glyph glyph-name="g" unicode="g" horiz-adv-x="1271" 
d="M88 508q0 223 140 369.5t356 146.5q111 0 204.5 -47t157.5 -133l4 164h156v-998q0 -215 -137 -346t-365 -131q-199 0 -326.5 95t-148.5 245l164 31q18 -102 98.5 -162.5t212.5 -60.5q153 0 246.5 83.5t93.5 235.5v172q-64 -83 -158 -130.5t-202 -47.5q-216 0 -356 146
t-140 368zM256 508q0 -162 96 -264.5t250 -102.5q153 0 248 103q94 101 94 264q0 162 -94 266q-95 103 -248 103q-155 0 -250 -103q-96 -107 -96 -266z" />
    <glyph glyph-name="h" unicode="h" horiz-adv-x="1193" 
d="M328 0h-160v1536h160v-676q53 76 136.5 120t188.5 44q113 0 201 -46t141.5 -142.5t53.5 -231.5v-604h-160v590q0 137 -73 210.5t-193 73.5q-117 0 -205 -79q-90 -81 -90 -240v-555z" />
    <glyph glyph-name="i" unicode="i" 
d="M360 1354q0 -47 -32.5 -79t-79.5 -32t-79 32t-32 79q0 49 31.5 79.5t79.5 30.5t80 -30.5t32 -79.5zM328 0h-160v1008h160v-1008z" />
    <glyph glyph-name="j" unicode="j" 
d="M137 1354q0 49 31.5 79.5t79.5 30.5t80 -30.5t32 -79.5q0 -47 -32.5 -79t-79.5 -32t-79 32t-32 79zM168 -174v1182h160v-1182q0 -135 -77 -214t-206 -79q-69 0 -145 27l32 135q59 -17 101 -17q63 0 99 39.5t36 108.5z" />
    <glyph glyph-name="k" unicode="k" horiz-adv-x="1050" 
d="M467 631l348 377h197l-412 -449l438 -559h-194l-381 475h-135v-475h-160v1536h160v-905h139z" />
    <glyph glyph-name="l" unicode="l" 
d="M328 0h-160v1536h160v-1536z" />
    <glyph glyph-name="m" unicode="m" horiz-adv-x="1742" 
d="M328 0h-160v1008h154l4 -131q46 68 119.5 107.5t164.5 39.5q102 0 183.5 -46t124.5 -132q49 82 132 130t189 48q147 0 254 -96q102 -99 102 -289v-639h-161v631q0 119 -60.5 181t-163.5 62q-108 0 -178.5 -65t-70.5 -184v-625h-160v631q0 119 -60.5 181t-162.5 62
q-108 0 -179 -69.5t-71 -194.5v-610z" />
    <glyph glyph-name="n" unicode="n" horiz-adv-x="1193" 
d="M328 0h-160v1008h154l4 -152q53 78 136.5 123t190.5 45q113 0 201 -46t141.5 -142.5t53.5 -231.5v-604h-160v590q0 137 -73 210.5t-193 73.5q-117 0 -205 -79q-90 -81 -90 -240v-555z" />
    <glyph glyph-name="o" unicode="o" horiz-adv-x="1216" 
d="M608 1024q226 0 373 -147t147 -371q0 -227 -147 -374.5t-373 -147.5t-373 147.5t-147 374.5q0 224 147 371t373 147zM608 877q-152 0 -252 -103t-100 -268q0 -167 100 -270q99 -105 252 -105q152 0 254 105q99 105 99 270q0 163 -99 268q-103 103 -254 103z" />
    <glyph glyph-name="p" unicode="p" horiz-adv-x="1271" 
d="M168 -451v1459h154l4 -174q64 90 158.5 140t209.5 50q210 0 350 -147t140 -371q0 -226 -140 -374t-350 -148q-114 0 -208 48.5t-158 137.5v-621h-160zM672 877q-153 0 -248 -103q-96 -107 -96 -268q0 -163 96 -270q94 -105 248 -105q149 0 248 105q96 107 96 270
q0 161 -96 268q-100 103 -248 103z" />
    <glyph glyph-name="q" unicode="q" horiz-adv-x="1271" 
d="M584 1024q110 0 204.5 -47.5t157.5 -132.5l4 164h154v-1459h-160v611q-64 -83 -157.5 -129.5t-202.5 -46.5q-212 0 -354 148t-142 374q0 223 142 370.5t354 147.5zM600 877q-151 0 -246 -103q-98 -104 -98 -268q0 -166 98 -270q94 -105 246 -105q153 0 248.5 104.5
t95.5 270.5q0 165 -95.5 268t-248.5 103z" />
    <glyph glyph-name="r" unicode="r" horiz-adv-x="749" 
d="M328 0h-160v1008h158l4 -160q44 81 123.5 128.5t181.5 47.5q51 0 100 -14l-24 -158q-49 14 -103 14q-119 0 -199.5 -91t-80.5 -251v-524z" />
    <glyph glyph-name="s" unicode="s" horiz-adv-x="978" 
d="M494 -16q-182 0 -289.5 81.5t-134.5 227.5l161 33q14 -96 83 -151.5t188 -55.5q106 0 169.5 42t63.5 122q0 20 -4 37.5t-15 31t-20.5 23.5t-30 19t-33 14t-40 11.5t-41 9.5t-46.5 9t-46 8q-39 8 -57.5 11.5t-55 12.5t-55.5 16.5t-49 21t-46.5 27.5t-36.5 34.5t-30.5 44.5
t-17.5 55.5t-7 67.5q0 125 104 206t273 81q165 0 267 -70.5t126 -195.5l-155 -31q-38 166 -240 166q-102 0 -156.5 -41t-54.5 -109q0 -81 76 -108q79 -28 176 -45q43 -8 60.5 -11.5t58 -13t59.5 -16.5t52.5 -21t50.5 -28t39.5 -36t33.5 -46t19 -56.5t8 -70.5
q0 -136 -106.5 -221.5t-300.5 -85.5z" />
    <glyph glyph-name="t" unicode="t" horiz-adv-x="761" 
d="M18 868v39l299 279h37v-178h377v-140h-377v-557q0 -93 43.5 -136.5t132.5 -43.5q63 0 154 35l37 -133q-114 -49 -215 -49q-149 0 -231 79t-82 222v583h-175z" />
    <glyph glyph-name="u" unicode="u" horiz-adv-x="1173" 
d="M143 1008h160v-605q0 -127 72 -199.5t192 -72.5q55 0 103.5 17.5t88.5 52.5t63.5 94.5t23.5 136.5v576h160v-1008h-148l-4 147q-54 -79 -138.5 -121t-187.5 -42q-168 0 -274 106q-111 108 -111 299v619z" />
    <glyph glyph-name="v" unicode="v" horiz-adv-x="1009" 
d="M592 0h-180l-396 1008h179l313 -822l315 822h170z" />
    <glyph glyph-name="w" unicode="w" horiz-adv-x="1357" 
d="M285 0l-240 1008h162l192 -815l267 528h28l269 -533l192 820h158l-240 -1008h-174l-219 436l-221 -436h-174z" />
    <glyph glyph-name="x" unicode="x" horiz-adv-x="960" 
d="M25 1008h190l266 -371l252 371h180l-342 -494l369 -514h-188l-287 397l-266 -397h-174l350 522z" />
    <glyph glyph-name="y" unicode="y" horiz-adv-x="1044" 
d="M455 8l-439 1000h181l346 -795l313 795h170l-588 -1459h-168z" />
    <glyph glyph-name="z" unicode="z" horiz-adv-x="888" 
d="M279 139h565v-139h-809v39l569 829h-538v140h786v-39z" />
    <glyph glyph-name="uni00A0" unicode="&#xa0;" horiz-adv-x="450" 
 />
    <glyph glyph-name="Agrave" unicode="&#xc0;" horiz-adv-x="1427" 
d="M203 0h-174l587 1536h193l590 -1536h-185l-200 530h-611zM709 1337l-246 -649h491zM664 1657l-263 282h207l203 -282h-147z" />
    <glyph glyph-name="Aacute" unicode="&#xc1;" horiz-adv-x="1427" 
d="M203 0h-174l587 1536h193l590 -1536h-185l-200 530h-611zM709 1337l-246 -649h491zM629 1657l205 282h206l-262 -282h-149z" />
    <glyph glyph-name="Acircumflex" unicode="&#xc2;" horiz-adv-x="1427" 
d="M203 0h-174l587 1536h193l590 -1536h-185l-200 530h-611zM709 1337l-246 -649h491zM1061 1657h-170l-176 172l-178 -172h-166l262 282h164z" />
    <glyph glyph-name="Atilde" unicode="&#xc3;" horiz-adv-x="1427" 
d="M203 0h-174l587 1536h193l590 -1536h-185l-200 530h-611zM709 1337l-246 -649h491zM856 1686q-38 0 -72.5 18t-56 39t-49.5 39t-55 18q-83 0 -80 -119h-121q-4 115 42 180.5t128 65.5q37 0 73.5 -17.5t60.5 -38.5t52.5 -38.5t52.5 -17.5q79 0 76 112h121
q7 -112 -40 -176.5t-132 -64.5z" />
    <glyph glyph-name="Adieresis" unicode="&#xc4;" horiz-adv-x="1427" 
d="M203 0h-174l587 1536h193l590 -1536h-185l-200 530h-611zM709 1337l-246 -649h491zM524 1735q-44 0 -75 31t-31 75t31 74.5t75 30.5t74.5 -30.5t30.5 -74.5t-30.5 -75t-74.5 -31zM903 1735q-44 0 -75 31t-31 75t31 74.5t75 30.5t75.5 -30.5t31.5 -74.5t-31.5 -75
t-75.5 -31z" />
    <glyph glyph-name="Aring" unicode="&#xc5;" horiz-adv-x="1427" 
d="M203 0h-174l579 1513q-92 50 -92 160q0 81 56 133t141 52q86 0 142 -51t56 -132q0 -53 -25.5 -95.5t-68.5 -66.5l582 -1513h-185l-200 530h-611zM612 1673q0 -44 28.5 -72t72.5 -28t72 28t28 72q0 43 -28 71t-72 28t-72.5 -28t-28.5 -71zM709 1337l-246 -649h491z" />
    <glyph glyph-name="AE" unicode="&#xc6;" horiz-adv-x="1976" 
d="M199 0h-187l922 1536h960v-160h-696v-487h475v-158h-475v-571h717v-160h-887v471h-547zM1028 1382l-453 -753h453v753z" />
    <glyph glyph-name="Ccedilla" unicode="&#xc7;" horiz-adv-x="1626" 
d="M301 768q0 -130 38.5 -243.5t109.5 -198.5t177.5 -134t235.5 -49q206 0 344.5 115.5t173.5 294.5l168 -45q-47 -219 -213 -363q-169 -146 -415 -161l-89 -330h-157l90 334q-197 21 -344 129t-223 276.5t-76 374.5q0 221 88.5 398t259 281.5t395.5 104.5q263 0 440 -141
t228 -375l-166 -47q-38 175 -168 287q-133 115 -336 115q-168 0 -297.5 -84.5t-196.5 -225t-67 -313.5z" />
    <glyph glyph-name="Egrave" unicode="&#xc8;" horiz-adv-x="1263" 
d="M1200 0h-967v1536h947v-160h-772v-485h550v-160h-550v-571h792v-160zM707 1657l-263 282h207l203 -282h-147z" />
    <glyph glyph-name="Eacute" unicode="&#xc9;" horiz-adv-x="1263" 
d="M1200 0h-967v1536h947v-160h-772v-485h550v-160h-550v-571h792v-160zM594 1657l205 282h207l-263 -282h-149z" />
    <glyph glyph-name="Ecircumflex" unicode="&#xca;" horiz-adv-x="1263" 
d="M1200 0h-967v1536h947v-160h-772v-485h550v-160h-550v-571h792v-160zM1063 1657h-170l-176 172l-178 -172h-166l262 282h164z" />
    <glyph glyph-name="Edieresis" unicode="&#xcb;" horiz-adv-x="1263" 
d="M1200 0h-967v1536h947v-160h-772v-485h550v-160h-550v-571h792v-160zM528 1735q-44 0 -75 31t-31 75t31 74.5t75 30.5t74.5 -30.5t30.5 -74.5t-30.5 -75t-74.5 -31zM907 1735q-44 0 -75 31t-31 75t31 74.5t75 30.5t75.5 -30.5t31.5 -74.5t-31.5 -75t-75.5 -31z" />
    <glyph glyph-name="Igrave" unicode="&#xcc;" horiz-adv-x="641" 
d="M408 0h-175v1536h175v-1536zM264 1657l-262 282h207l203 -282h-148z" />
    <glyph glyph-name="Iacute" unicode="&#xcd;" horiz-adv-x="641" 
d="M408 0h-175v1536h175v-1536zM229 1657l205 282h207l-262 -282h-150z" />
    <glyph glyph-name="Icircumflex" unicode="&#xce;" horiz-adv-x="641" 
d="M408 0h-175v1536h175v-1536zM666 1657h-170l-177 172l-178 -172h-166l263 282h163z" />
    <glyph glyph-name="Idieresis" unicode="&#xcf;" horiz-adv-x="641" 
d="M408 0h-175v1536h175v-1536zM131 1735q-44 0 -75 31t-31 75t31 74.5t75 30.5t74.5 -30.5t30.5 -74.5t-30.5 -75t-74.5 -31zM510 1735q-44 0 -75.5 31t-31.5 75t31.5 74.5t75.5 30.5t75 -30.5t31 -74.5t-31 -75t-75 -31z" />
    <glyph glyph-name="Ntilde" unicode="&#xd1;" horiz-adv-x="1685" 
d="M399 0h-166v1536h187l864 -1280v1280h168v-1536h-186l-867 1284v-1284zM1001 1686q-38 0 -72.5 18t-56 39t-49.5 39t-55 18q-83 0 -80 -119h-121q-4 115 42 180.5t128 65.5q37 0 74 -17.5t61 -38.5t52.5 -38.5t52.5 -17.5q79 0 76 112h121q7 -111 -40 -176t-133 -65z" />
    <glyph glyph-name="Ograve" unicode="&#xd2;" horiz-adv-x="1736" 
d="M121 768q0 225 94 404t264.5 279.5t388.5 100.5q164 0 304 -59t237 -162t152 -248.5t55 -314.5q0 -168 -55 -313.5t-152 -249t-237 -162.5t-304 -59q-218 0 -388.5 101t-264.5 279.5t-94 403.5zM1436 768q0 277 -157 450t-411 173q-257 0 -412 -172.5t-155 -450.5
t155 -450.5t412 -172.5q254 0 411 173t157 450zM881 1657l-263 282h207l203 -282h-147z" />
    <glyph glyph-name="Oacute" unicode="&#xd3;" horiz-adv-x="1736" 
d="M121 768q0 225 94 404t264.5 279.5t388.5 100.5q164 0 304 -59t237 -162t152 -248.5t55 -314.5q0 -168 -55 -313.5t-152 -249t-237 -162.5t-304 -59q-218 0 -388.5 101t-264.5 279.5t-94 403.5zM1436 768q0 277 -157 450t-411 173q-257 0 -412 -172.5t-155 -450.5
t155 -450.5t412 -172.5q254 0 411 173t157 450zM745 1657l205 282h207l-262 -282h-150z" />
    <glyph glyph-name="Ocircumflex" unicode="&#xd4;" horiz-adv-x="1736" 
d="M121 768q0 225 94 404t264.5 279.5t388.5 100.5q164 0 304 -59t237 -162t152 -248.5t55 -314.5q0 -168 -55 -313.5t-152 -249t-237 -162.5t-304 -59q-218 0 -388.5 101t-264.5 279.5t-94 403.5zM1436 768q0 277 -157 450t-411 173q-257 0 -412 -172.5t-155 -450.5
t155 -450.5t412 -172.5q254 0 411 173t157 450zM1214 1657h-170l-176 172l-178 -172h-166l262 282h164z" />
    <glyph glyph-name="Otilde" unicode="&#xd5;" horiz-adv-x="1736" 
d="M121 768q0 225 94 404t264.5 279.5t388.5 100.5q164 0 304 -59t237 -162t152 -248.5t55 -314.5q0 -168 -55 -313.5t-152 -249t-237 -162.5t-304 -59q-218 0 -388.5 101t-264.5 279.5t-94 403.5zM1436 768q0 277 -157 450t-411 173q-257 0 -412 -172.5t-155 -450.5
t155 -450.5t412 -172.5q254 0 411 173t157 450zM1004 1686q-38 0 -72.5 18t-56 39t-50 39t-55.5 18q-83 0 -80 -119h-121q-4 115 42 180.5t128 65.5q37 0 74 -17.5t61 -38.5t52.5 -38.5t52.5 -17.5q79 0 76 112h121q7 -112 -40 -176.5t-132 -64.5z" />
    <glyph glyph-name="Odieresis" unicode="&#xd6;" horiz-adv-x="1736" 
d="M121 768q0 225 94 404t264.5 279.5t388.5 100.5q164 0 304 -59t237 -162t152 -248.5t55 -314.5q0 -168 -55 -313.5t-152 -249t-237 -162.5t-304 -59q-218 0 -388.5 101t-264.5 279.5t-94 403.5zM1436 768q0 277 -157 450t-411 173q-257 0 -412 -172.5t-155 -450.5
t155 -450.5t412 -172.5q254 0 411 173t157 450zM680 1735q-44 0 -75.5 31t-31.5 75t31.5 74.5t75.5 30.5t74 -30.5t30 -74.5t-30 -75t-74 -31zM1059 1735q-44 0 -75.5 31t-31.5 75t31.5 74.5t75.5 30.5t75 -30.5t31 -74.5t-31 -75t-75 -31z" />
    <glyph glyph-name="Ugrave" unicode="&#xd9;" horiz-adv-x="1568" 
d="M784 145q182 0 293 111.5t111 304.5v975h174v-973q0 -265 -160.5 -422t-417.5 -157t-417 157t-160 422v973h174v-975q0 -194 111 -305t292 -111zM791 1657l-263 282h207l203 -282h-147z" />
    <glyph glyph-name="Uacute" unicode="&#xda;" horiz-adv-x="1568" 
d="M784 145q182 0 293 111.5t111 304.5v975h174v-973q0 -265 -160.5 -422t-417.5 -157t-417 157t-160 422v973h174v-975q0 -194 111 -305t292 -111zM668 1657l204 282h207l-262 -282h-149z" />
    <glyph glyph-name="Ucircumflex" unicode="&#xdb;" horiz-adv-x="1568" 
d="M784 145q182 0 293 111.5t111 304.5v975h174v-973q0 -265 -160.5 -422t-417.5 -157t-417 157t-160 422v973h174v-975q0 -194 111 -305t292 -111zM1130 1657h-169l-177 172l-178 -172h-166l262 282h164z" />
    <glyph glyph-name="Udieresis" unicode="&#xdc;" horiz-adv-x="1568" 
d="M784 145q182 0 293 111.5t111 304.5v975h174v-973q0 -265 -160.5 -422t-417.5 -157t-417 157t-160 422v973h174v-975q0 -194 111 -305t292 -111zM596 1735q-44 0 -75.5 31t-31.5 75t31.5 74.5t75.5 30.5t74 -30.5t30 -74.5t-30 -75t-74 -31zM975 1735q-44 0 -75.5 31
t-31.5 75t31.5 74.5t75.5 30.5t75 -30.5t31 -74.5t-31 -75t-75 -31z" />
    <glyph glyph-name="Yacute" unicode="&#xdd;" horiz-adv-x="1337" 
d="M758 0h-174v680l-568 856h205l455 -690l450 690h197l-565 -856v-680zM547 1700l205 282h206l-262 -282h-149z" />
    <glyph glyph-name="germandbls" unicode="&#xdf;" horiz-adv-x="1224" 
d="M332 0h-162v1069q0 214 131 348q129 135 342 135q187 0 305 -112q119 -113 119 -283q0 -116 -60 -205t-169 -131q151 -42 227 -148t76 -261q0 -187 -127 -308q-126 -120 -342 -120q-126 0 -234 43l35 139q87 -37 182 -37q143 0 230.5 78.5t87.5 212.5q0 148 -95.5 232.5
t-256.5 84.5h-70v146h70q133 0 208.5 73t75.5 193q0 113 -75 185.5t-193 72.5q-141 0 -223 -92t-82 -242v-1073z" />
    <glyph glyph-name="agrave" unicode="&#xe0;" horiz-adv-x="1087" 
d="M940 0h-147l-5 195q-63 -99 -163.5 -155t-216.5 -56q-143 0 -230.5 75t-87.5 203q0 145 111 219q107 70 291 117l292 68q-10 108 -79.5 164.5t-180.5 56.5q-113 0 -186.5 -52t-99.5 -151l-148 29q29 143 148 227t292 84q189 0 299.5 -103.5t110.5 -281.5v-639zM256 276
q0 -70 46.5 -112.5t127.5 -42.5q144 0 250 106t106 287v23l-294 -72q-120 -31 -178 -74t-58 -115zM532 1171l-262 283h207l203 -283h-148z" />
    <glyph glyph-name="aacute" unicode="&#xe1;" horiz-adv-x="1087" 
d="M940 0h-147l-5 195q-63 -99 -163.5 -155t-216.5 -56q-143 0 -230.5 75t-87.5 203q0 145 111 219q107 70 291 117l292 68q-10 108 -79.5 164.5t-180.5 56.5q-113 0 -186.5 -52t-99.5 -151l-148 29q29 143 148 227t292 84q189 0 299.5 -103.5t110.5 -281.5v-639zM256 276
q0 -70 46.5 -112.5t127.5 -42.5q144 0 250 106t106 287v23l-294 -72q-120 -31 -178 -74t-58 -115zM408 1171l204 283h207l-262 -283h-149z" />
    <glyph glyph-name="acircumflex" unicode="&#xe2;" horiz-adv-x="1087" 
d="M940 0h-147l-5 195q-63 -99 -163.5 -155t-216.5 -56q-143 0 -230.5 75t-87.5 203q0 145 111 219q107 70 291 117l292 68q-10 108 -79.5 164.5t-180.5 56.5q-113 0 -186.5 -52t-99.5 -151l-148 29q29 143 148 227t292 84q189 0 299.5 -103.5t110.5 -281.5v-639zM256 276
q0 -70 46.5 -112.5t127.5 -42.5q144 0 250 106t106 287v23l-294 -72q-120 -31 -178 -74t-58 -115zM877 1171h-170l-177 172l-178 -172h-166l263 283h163z" />
    <glyph glyph-name="atilde" unicode="&#xe3;" horiz-adv-x="1087" 
d="M940 0h-147l-5 195q-63 -99 -163.5 -155t-216.5 -56q-143 0 -230.5 75t-87.5 203q0 145 111 219q107 70 291 117l292 68q-10 108 -79.5 164.5t-180.5 56.5q-113 0 -186.5 -52t-99.5 -151l-148 29q29 143 148 227t292 84q189 0 299.5 -103.5t110.5 -281.5v-639zM256 276
q0 -70 46.5 -112.5t127.5 -42.5q144 0 250 106t106 287v23l-294 -72q-120 -31 -178 -74t-58 -115zM666 1200q-38 0 -72.5 18t-56 39.5t-50 39.5t-55.5 18q-83 0 -80 -119h-121q-4 115 42 180.5t128 65.5q37 0 74 -17.5t61 -39t52.5 -39t52.5 -17.5q79 0 76 113h121
q7 -112 -40 -177t-132 -65z" />
    <glyph glyph-name="adieresis" unicode="&#xe4;" horiz-adv-x="1087" 
d="M940 0h-147l-5 195q-63 -99 -163.5 -155t-216.5 -56q-143 0 -230.5 75t-87.5 203q0 145 111 219q107 70 291 117l292 68q-10 108 -79.5 164.5t-180.5 56.5q-113 0 -186.5 -52t-99.5 -151l-148 29q29 143 148 227t292 84q189 0 299.5 -103.5t110.5 -281.5v-639zM256 276
q0 -70 46.5 -112.5t127.5 -42.5q144 0 250 106t106 287v23l-294 -72q-120 -31 -178 -74t-58 -115zM342 1249q-44 0 -75 31.5t-31 75.5t31 74t75 30t74 -30t30 -74q0 -45 -30 -76t-74 -31zM721 1249q-44 0 -75.5 31.5t-31.5 75.5t31 74t76 30q44 0 75 -30t31 -74t-31 -75.5
t-75 -31.5z" />
    <glyph glyph-name="aring" unicode="&#xe5;" horiz-adv-x="1087" 
d="M940 0h-147l-5 195q-63 -99 -163.5 -155t-216.5 -56q-143 0 -230.5 75t-87.5 203q0 145 111 219q107 70 291 117l292 68q-10 108 -79.5 164.5t-180.5 56.5q-113 0 -186.5 -52t-99.5 -151l-148 29q29 143 148 227t292 84q189 0 299.5 -103.5t110.5 -281.5v-639zM256 276
q0 -70 46.5 -112.5t127.5 -42.5q144 0 250 106t106 287v23l-294 -72q-120 -31 -178 -74t-58 -115zM526 1526q86 0 142.5 -51t56.5 -132t-57 -134.5t-142 -53.5t-140.5 52.5t-55.5 133.5t55.5 133t140.5 52zM426 1341q0 -44 28 -72t72 -28t72.5 28t28.5 72q0 43 -28.5 71
t-72.5 28t-72 -28t-28 -71z" />
    <glyph glyph-name="ae" unicode="&#xe6;" horiz-adv-x="1843" 
d="M410 -16q-142 0 -227 75.5t-85 202.5q0 147 113 217q111 71 289 111l284 63q-4 114 -73 174t-187 60q-232 0 -284 -205l-150 31q29 143 147.5 227t290.5 84q128 0 222 -49.5t139 -138.5q67 89 167.5 138.5t221.5 49.5q209 0 342 -133q133 -136 133 -344q0 -1 -6 -76h-797
q5 -156 93.5 -250t240.5 -94q126 0 207 56.5t106 156.5l150 -29q-32 -148 -159 -237.5t-304 -89.5q-150 0 -261.5 66.5t-172.5 185.5q-60 -118 -176.5 -185t-263.5 -67zM952 598h641q-6 125 -93 207t-222 82q-132 0 -223 -82q-94 -82 -103 -207zM264 272q0 -69 45 -111
t123 -42q144 0 248 97t104 265v43l-284 -63q-121 -28 -178.5 -71t-57.5 -118z" />
    <glyph glyph-name="ccedilla" unicode="&#xe7;" horiz-adv-x="1128" 
d="M256 510q0 -165 96 -272q94 -107 244 -107q127 0 210 67.5t107 180.5l154 -27q-25 -143 -132 -243.5t-263 -120.5l-90 -334h-158l92 336q-186 27 -307 172t-121 348q0 222 145 368t363 146q182 0 305.5 -96t159.5 -258l-156 -29q-27 108 -107.5 172t-199.5 64
q-150 0 -244 -101q-98 -101 -98 -266z" />
    <glyph glyph-name="egrave" unicode="&#xe8;" horiz-adv-x="1167" 
d="M88 510q0 223 143 368.5t361 145.5q216 0 350 -131q135 -132 135 -340q0 -1 -6 -82h-819q13 -169 103.5 -256.5t240.5 -87.5q133 0 217 56.5t111 156.5l147 -29q-32 -148 -162 -237.5t-313 -89.5q-230 0 -369 147.5t-139 378.5zM592 887q-136 0 -230 -79.5t-106 -203.5
h662q-8 125 -99 204t-227 79zM582 1171l-263 283h207l203 -283h-147z" />
    <glyph glyph-name="eacute" unicode="&#xe9;" horiz-adv-x="1167" 
d="M88 510q0 223 143 368.5t361 145.5q216 0 350 -131q135 -132 135 -340q0 -1 -6 -82h-819q13 -169 103.5 -256.5t240.5 -87.5q133 0 217 56.5t111 156.5l147 -29q-32 -148 -162 -237.5t-313 -89.5q-230 0 -369 147.5t-139 378.5zM592 887q-136 0 -230 -79.5t-106 -203.5
h662q-8 125 -99 204t-227 79zM471 1171l205 283h207l-262 -283h-150z" />
    <glyph glyph-name="ecircumflex" unicode="&#xea;" horiz-adv-x="1167" 
d="M88 510q0 223 143 368.5t361 145.5q216 0 350 -131q135 -132 135 -340q0 -1 -6 -82h-819q13 -169 103.5 -256.5t240.5 -87.5q133 0 217 56.5t111 156.5l147 -29q-32 -148 -162 -237.5t-313 -89.5q-230 0 -369 147.5t-139 378.5zM592 887q-136 0 -230 -79.5t-106 -203.5
h662q-8 125 -99 204t-227 79zM928 1171h-170l-176 172l-179 -172h-165l262 283h164z" />
    <glyph glyph-name="edieresis" unicode="&#xeb;" horiz-adv-x="1167" 
d="M88 510q0 223 143 368.5t361 145.5q216 0 350 -131q135 -132 135 -340q0 -1 -6 -82h-819q13 -169 103.5 -256.5t240.5 -87.5q133 0 217 56.5t111 156.5l147 -29q-32 -148 -162 -237.5t-313 -89.5q-230 0 -369 147.5t-139 378.5zM592 887q-136 0 -230 -79.5t-106 -203.5
h662q-8 125 -99 204t-227 79zM393 1249q-44 0 -75 31.5t-31 75.5t31 74t75 30t74.5 -30t30.5 -74t-30.5 -75.5t-74.5 -31.5zM772 1249q-44 0 -75 31.5t-31 75.5t31 74t75 30q45 0 76 -30t31 -74t-31.5 -75.5t-75.5 -31.5z" />
    <glyph glyph-name="igrave" unicode="&#xec;" 
d="M328 0h-160v1008h160v-1008zM203 1171l-262 283h206l203 -283h-147z" />
    <glyph glyph-name="iacute" unicode="&#xed;" 
d="M328 0h-160v1008h160v-1008zM154 1171l204 283h207l-262 -283h-149z" />
    <glyph glyph-name="icircumflex" unicode="&#xee;" 
d="M328 0h-160v1008h160v-1008zM594 1174h-170l-176 172l-178 -172h-166l262 282h164z" />
    <glyph glyph-name="idieresis" unicode="&#xef;" 
d="M328 0h-160v1008h160v-1008zM59 1249q-44 0 -75 31.5t-31 75.5t31 74t75 30t74.5 -30t30.5 -74t-30.5 -75.5t-74.5 -31.5zM438 1249q-44 0 -75 31.5t-31 75.5t31 74t75 30q45 0 76 -30t31 -74t-31.5 -75.5t-75.5 -31.5z" />
    <glyph glyph-name="ntilde" unicode="&#xf1;" horiz-adv-x="1193" 
d="M328 0h-160v1008h154l4 -152q53 78 136.5 123t190.5 45q113 0 201 -46t141.5 -142.5t53.5 -231.5v-604h-160v590q0 137 -73 210.5t-193 73.5q-117 0 -205 -79q-90 -81 -90 -240v-555zM745 1200q-38 0 -72.5 18t-56 39.5t-49.5 39.5t-55 18q-83 0 -80 -119h-121
q-4 115 42 180.5t128 65.5q37 0 74 -17.5t61 -39t52.5 -39t52.5 -17.5q79 0 76 113h121q7 -112 -40 -177t-133 -65z" />
    <glyph glyph-name="ograve" unicode="&#xf2;" horiz-adv-x="1216" 
d="M608 1024q226 0 373 -147t147 -371q0 -227 -147 -374.5t-373 -147.5t-373 147.5t-147 374.5q0 224 147 371t373 147zM608 877q-152 0 -252 -103t-100 -268q0 -167 100 -270q99 -105 252 -105q152 0 254 105q99 105 99 270q0 163 -99 268q-103 103 -254 103zM606 1171
l-262 283h207l203 -283h-148z" />
    <glyph glyph-name="oacute" unicode="&#xf3;" horiz-adv-x="1216" 
d="M608 1024q226 0 373 -147t147 -371q0 -227 -147 -374.5t-373 -147.5t-373 147.5t-147 374.5q0 224 147 371t373 147zM608 877q-152 0 -252 -103t-100 -268q0 -167 100 -270q99 -105 252 -105q152 0 254 105q99 105 99 270q0 163 -99 268q-103 103 -254 103zM485 1171
l205 283h207l-262 -283h-150z" />
    <glyph glyph-name="ocircumflex" unicode="&#xf4;" horiz-adv-x="1216" 
d="M608 1024q226 0 373 -147t147 -371q0 -227 -147 -374.5t-373 -147.5t-373 147.5t-147 374.5q0 224 147 371t373 147zM608 877q-152 0 -252 -103t-100 -268q0 -167 100 -270q99 -105 252 -105q152 0 254 105q99 105 99 270q0 163 -99 268q-103 103 -254 103zM952 1171
h-170l-176 172l-178 -172h-166l262 283h164z" />
    <glyph glyph-name="otilde" unicode="&#xf5;" horiz-adv-x="1216" 
d="M608 1024q226 0 373 -147t147 -371q0 -227 -147 -374.5t-373 -147.5t-373 147.5t-147 374.5q0 224 147 371t373 147zM608 877q-152 0 -252 -103t-100 -268q0 -167 100 -270q99 -105 252 -105q152 0 254 105q99 105 99 270q0 163 -99 268q-103 103 -254 103zM741 1200
q-38 0 -72.5 18t-56 39.5t-49.5 39.5t-55 18q-83 0 -80 -119h-121q-4 115 42 180.5t128 65.5q37 0 74 -17.5t61 -39t52.5 -39t52.5 -17.5q79 0 76 113h120q7 -112 -40 -177t-132 -65z" />
    <glyph glyph-name="odieresis" unicode="&#xf6;" horiz-adv-x="1216" 
d="M608 1024q226 0 373 -147t147 -371q0 -227 -147 -374.5t-373 -147.5t-373 147.5t-147 374.5q0 224 147 371t373 147zM608 877q-152 0 -252 -103t-100 -268q0 -167 100 -270q99 -105 252 -105q152 0 254 105q99 105 99 270q0 163 -99 268q-103 103 -254 103zM418 1249
q-44 0 -75.5 31.5t-31.5 75.5t31 74t76 30q44 0 74 -30t30 -74q0 -45 -30 -76t-74 -31zM797 1249q-44 0 -75.5 31.5t-31.5 75.5t31 74t76 30q44 0 75 -30t31 -74t-31 -75.5t-75 -31.5z" />
    <glyph glyph-name="ugrave" unicode="&#xf9;" horiz-adv-x="1173" 
d="M143 1008h160v-605q0 -127 72 -199.5t192 -72.5q55 0 103.5 17.5t88.5 52.5t63.5 94.5t23.5 136.5v576h160v-1008h-148l-4 147q-54 -79 -138.5 -121t-187.5 -42q-168 0 -274 106q-111 108 -111 299v619zM580 1171l-263 283h207l203 -283h-147z" />
    <glyph glyph-name="uacute" unicode="&#xfa;" horiz-adv-x="1173" 
d="M143 1008h160v-605q0 -127 72 -199.5t192 -72.5q55 0 103.5 17.5t88.5 52.5t63.5 94.5t23.5 136.5v576h160v-1008h-148l-4 147q-54 -79 -138.5 -121t-187.5 -42q-168 0 -274 106q-111 108 -111 299v619zM469 1171l205 283h207l-263 -283h-149z" />
    <glyph glyph-name="ucircumflex" unicode="&#xfb;" horiz-adv-x="1173" 
d="M143 1008h160v-605q0 -127 72 -199.5t192 -72.5q55 0 103.5 17.5t88.5 52.5t63.5 94.5t23.5 136.5v576h160v-1008h-148l-4 147q-54 -79 -138.5 -121t-187.5 -42q-168 0 -274 106q-111 108 -111 299v619zM932 1171h-170l-176 172l-178 -172h-166l262 283h164z" />
    <glyph glyph-name="udieresis" unicode="&#xfc;" horiz-adv-x="1173" 
d="M143 1008h160v-605q0 -127 72 -199.5t192 -72.5q55 0 103.5 17.5t88.5 52.5t63.5 94.5t23.5 136.5v576h160v-1008h-148l-4 147q-54 -79 -138.5 -121t-187.5 -42q-168 0 -274 106q-111 108 -111 299v619zM397 1249q-44 0 -75 31.5t-31 75.5t31 74t75 30t74.5 -30t30.5 -74
t-30.5 -75.5t-74.5 -31.5zM776 1249q-44 0 -75 31.5t-31 75.5t31 74t75 30q45 0 76 -30t31 -74t-31.5 -75.5t-75.5 -31.5z" />
    <glyph glyph-name="yacute" unicode="&#xfd;" horiz-adv-x="1044" 
d="M455 8l-439 1000h181l346 -795l313 795h170l-588 -1459h-168zM412 1171l204 283h207l-262 -283h-149z" />
    <glyph glyph-name="ydieresis" unicode="&#xff;" horiz-adv-x="1044" 
d="M455 8l-439 1000h181l346 -795l313 795h170l-588 -1459h-168zM334 1249q-44 0 -75.5 31.5t-31.5 75.5t31 74t76 30q44 0 74 -30t30 -74q0 -45 -30 -76t-74 -31zM713 1249q-44 0 -75.5 31.5t-31.5 75.5t31 74t76 30q44 0 75 -30t31 -74t-31 -75.5t-75 -31.5z" />
    <glyph glyph-name="Amacron" unicode="&#x100;" horiz-adv-x="1427" 
d="M203 0h-174l587 1536h193l590 -1536h-185l-200 530h-611zM709 1337l-246 -649h491zM420 1751v137h586v-137h-586z" />
    <glyph glyph-name="amacron" unicode="&#x101;" horiz-adv-x="1087" 
d="M940 0h-147l-5 195q-63 -99 -163.5 -155t-216.5 -56q-143 0 -230.5 75t-87.5 203q0 145 111 219q107 70 291 117l292 68q-10 108 -79.5 164.5t-180.5 56.5q-113 0 -186.5 -52t-99.5 -151l-148 29q29 143 148 227t292 84q189 0 299.5 -103.5t110.5 -281.5v-639zM256 276
q0 -70 46.5 -112.5t127.5 -42.5q144 0 250 106t106 287v23l-294 -72q-120 -31 -178 -74t-58 -115zM238 1266v137h585v-137h-585z" />
    <glyph glyph-name="Abreve" unicode="&#x102;" horiz-adv-x="1427" 
d="M203 0h-174l587 1536h193l590 -1536h-185l-200 530h-611zM709 1337l-246 -649h491zM713 1780q71 0 117 40t47 113h141q0 -128 -84 -203t-221 -75q-136 0 -220 75t-85 203h143q0 -73 45 -113t117 -40z" />
    <glyph glyph-name="abreve" unicode="&#x103;" horiz-adv-x="1087" 
d="M940 0h-147l-5 195q-63 -99 -163.5 -155t-216.5 -56q-143 0 -230.5 75t-87.5 203q0 145 111 219q107 70 291 117l292 68q-10 108 -79.5 164.5t-180.5 56.5q-113 0 -186.5 -52t-99.5 -151l-148 29q29 143 148 227t292 84q189 0 299.5 -103.5t110.5 -281.5v-639zM256 276
q0 -70 46.5 -112.5t127.5 -42.5q144 0 250 106t106 287v23l-294 -72q-120 -31 -178 -74t-58 -115zM530 1294q71 0 117 40.5t47 113.5h142q0 -128 -84.5 -203.5t-221.5 -75.5q-136 0 -220 75.5t-85 203.5h144q0 -73 45 -113.5t116 -40.5z" />
    <glyph glyph-name="Aogonek" unicode="&#x104;" horiz-adv-x="1427" 
d="M203 0h-174l587 1536h193l590 -1536h-2q-98 -48 -148.5 -97.5t-50.5 -117.5q0 -57 33 -88t90 -31q36 0 63 12l27 -114q-71 -31 -141 -31q-104 0 -165 59.5t-61 159.5q0 152 168 252l-198 526h-611zM709 1337l-246 -649h491z" />
    <glyph glyph-name="aogonek" unicode="&#x105;" horiz-adv-x="1087" 
d="M815 -467q-104 0 -164.5 59.5t-60.5 159.5q0 170 203 271l-5 172q-63 -99 -163.5 -155t-216.5 -56q-143 0 -230.5 75t-87.5 203q0 145 111 219q107 70 291 117l292 68q-10 108 -79.5 164.5t-180.5 56.5q-113 0 -186.5 -52t-99.5 -151l-148 29q29 143 148 227t292 84
q189 0 299.5 -103.5t110.5 -281.5v-635l2 -4q-98 -48 -148.5 -97.5t-50.5 -117.5q0 -57 33 -88t90 -31q37 0 64 12l26 -114q-71 -31 -141 -31zM256 276q0 -70 46.5 -112.5t127.5 -42.5q144 0 250 106t106 287v23l-294 -72q-120 -31 -178 -74t-58 -115z" />
    <glyph glyph-name="Cacute" unicode="&#x106;" horiz-adv-x="1626" 
d="M301 768q0 -130 38.5 -243.5t109.5 -198.5t177.5 -134t235.5 -49q206 0 344.5 115.5t173.5 294.5l168 -45q-50 -236 -235.5 -381t-452.5 -145q-168 0 -308 60.5t-233.5 166.5t-145.5 250t-52 309q0 221 88.5 398t259 281.5t395.5 104.5q263 0 440 -141t228 -375l-166 -47
q-38 175 -168 287q-133 115 -336 115q-168 0 -297.5 -84.5t-196.5 -225t-67 -313.5zM760 1657l205 282h206l-262 -282h-149z" />
    <glyph glyph-name="cacute" unicode="&#x107;" horiz-adv-x="1128" 
d="M256 510q0 -165 96 -272q94 -107 244 -107q127 0 210 67.5t107 180.5l154 -27q-27 -157 -156 -262q-127 -106 -315 -106q-220 0 -364 149.5t-144 376.5q0 222 145 368t363 146q182 0 305.5 -96t159.5 -258l-156 -29q-27 108 -107.5 172t-199.5 64q-150 0 -244 -101
q-98 -101 -98 -266zM485 1171l205 283h207l-262 -283h-150z" />
    <glyph glyph-name="Ccircumflex" unicode="&#x108;" horiz-adv-x="1626" 
d="M301 768q0 -130 38.5 -243.5t109.5 -198.5t177.5 -134t235.5 -49q206 0 344.5 115.5t173.5 294.5l168 -45q-50 -236 -235.5 -381t-452.5 -145q-168 0 -308 60.5t-233.5 166.5t-145.5 250t-52 309q0 221 88.5 398t259 281.5t395.5 104.5q263 0 440 -141t228 -375l-166 -47
q-38 175 -168 287q-133 115 -336 115q-168 0 -297.5 -84.5t-196.5 -225t-67 -313.5zM1223 1657h-170l-176 172l-179 -172h-166l263 282h163z" />
    <glyph glyph-name="ccircumflex" unicode="&#x109;" horiz-adv-x="1128" 
d="M256 510q0 -165 96 -272q94 -107 244 -107q127 0 210 67.5t107 180.5l154 -27q-27 -157 -156 -262q-127 -106 -315 -106q-220 0 -364 149.5t-144 376.5q0 222 145 368t363 146q182 0 305.5 -96t159.5 -258l-156 -29q-27 108 -107.5 172t-199.5 64q-150 0 -244 -101
q-98 -101 -98 -266zM950 1171h-170l-176 172l-178 -172h-166l262 283h164z" />
    <glyph glyph-name="Cdotaccent" unicode="&#x10a;" horiz-adv-x="1626" 
d="M301 768q0 -130 38.5 -243.5t109.5 -198.5t177.5 -134t235.5 -49q206 0 344.5 115.5t173.5 294.5l168 -45q-50 -236 -235.5 -381t-452.5 -145q-168 0 -308 60.5t-233.5 166.5t-145.5 250t-52 309q0 221 88.5 398t259 281.5t395.5 104.5q263 0 440 -141t228 -375l-166 -47
q-38 175 -168 287q-133 115 -336 115q-168 0 -297.5 -84.5t-196.5 -225t-67 -313.5zM877 1729q-48 0 -80.5 31.5t-32.5 78.5q0 49 32.5 80t80.5 31t80 -31t32 -80q0 -47 -32.5 -78.5t-79.5 -31.5z" />
    <glyph glyph-name="cdotaccent" unicode="&#x10b;" horiz-adv-x="1128" 
d="M256 510q0 -165 96 -272q94 -107 244 -107q127 0 210 67.5t107 180.5l154 -27q-27 -157 -156 -262q-127 -106 -315 -106q-220 0 -364 149.5t-144 376.5q0 222 145 368t363 146q182 0 305.5 -96t159.5 -258l-156 -29q-27 108 -107.5 172t-199.5 64q-150 0 -244 -101
q-98 -101 -98 -266zM604 1243q-47 0 -79.5 32t-32.5 79q0 49 32 79.5t80 30.5t80.5 -30.5t32.5 -79.5q0 -47 -33 -79t-80 -32z" />
    <glyph glyph-name="Ccaron" unicode="&#x10c;" horiz-adv-x="1626" 
d="M301 768q0 -130 38.5 -243.5t109.5 -198.5t177.5 -134t235.5 -49q206 0 344.5 115.5t173.5 294.5l168 -45q-50 -236 -235.5 -381t-452.5 -145q-168 0 -308 60.5t-233.5 166.5t-145.5 250t-52 309q0 221 88.5 398t259 281.5t395.5 104.5q263 0 440 -141t228 -375l-166 -47
q-38 175 -168 287q-133 115 -336 115q-168 0 -297.5 -84.5t-196.5 -225t-67 -313.5zM879 1765l178 174h166l-265 -282h-163l-263 282h168z" />
    <glyph glyph-name="ccaron" unicode="&#x10d;" horiz-adv-x="1128" 
d="M256 510q0 -165 96 -272q94 -107 244 -107q127 0 210 67.5t107 180.5l154 -27q-27 -157 -156 -262q-127 -106 -315 -106q-220 0 -364 149.5t-144 376.5q0 222 145 368t363 146q182 0 305.5 -96t159.5 -258l-156 -29q-27 108 -107.5 172t-199.5 64q-150 0 -244 -101
q-98 -101 -98 -266zM606 1280l178 174h166l-264 -283h-164l-262 283h168z" />
    <glyph glyph-name="Emacron" unicode="&#x112;" horiz-adv-x="1263" 
d="M1200 0h-967v1536h947v-160h-772v-485h550v-160h-550v-571h792v-160zM424 1751v137h586v-137h-586z" />
    <glyph glyph-name="emacron" unicode="&#x113;" horiz-adv-x="1167" 
d="M88 510q0 223 143 368.5t361 145.5q216 0 350 -131q135 -132 135 -340q0 -1 -6 -82h-819q13 -169 103.5 -256.5t240.5 -87.5q133 0 217 56.5t111 156.5l147 -29q-32 -148 -162 -237.5t-313 -89.5q-230 0 -369 147.5t-139 378.5zM592 887q-136 0 -230 -79.5t-106 -203.5
h662q-8 125 -99 204t-227 79zM289 1266v137h585v-137h-585z" />
    <glyph glyph-name="Ebreve" unicode="&#x114;" horiz-adv-x="1263" 
d="M1200 0h-967v1536h947v-160h-772v-485h550v-160h-550v-571h792v-160zM717 1780q71 0 117 40t47 113h141q0 -128 -84 -203t-221 -75q-136 0 -220 75t-85 203h143q0 -73 45 -113t117 -40z" />
    <glyph glyph-name="ebreve" unicode="&#x115;" horiz-adv-x="1167" 
d="M88 510q0 223 143 368.5t361 145.5q216 0 350 -131q135 -132 135 -340q0 -1 -6 -82h-819q13 -169 103.5 -256.5t240.5 -87.5q133 0 217 56.5t111 156.5l147 -29q-32 -148 -162 -237.5t-313 -89.5q-230 0 -369 147.5t-139 378.5zM592 887q-136 0 -230 -79.5t-106 -203.5
h662q-8 125 -99 204t-227 79zM582 1294q71 0 116.5 40.5t46.5 113.5h142q0 -128 -84.5 -203.5t-220.5 -75.5t-220.5 75.5t-85.5 203.5h144q0 -73 45.5 -113.5t116.5 -40.5z" />
    <glyph glyph-name="Edotaccent" unicode="&#x116;" horiz-adv-x="1263" 
d="M1200 0h-967v1536h947v-160h-772v-485h550v-160h-550v-571h792v-160zM717 1729q-48 0 -80.5 31.5t-32.5 78.5q0 49 32.5 80t80.5 31t80 -31t32 -80q0 -47 -32.5 -78.5t-79.5 -31.5z" />
    <glyph glyph-name="edotaccent" unicode="&#x117;" horiz-adv-x="1167" 
d="M88 510q0 223 143 368.5t361 145.5q216 0 350 -131q135 -132 135 -340q0 -1 -6 -82h-819q13 -169 103.5 -256.5t240.5 -87.5q133 0 217 56.5t111 156.5l147 -29q-32 -148 -162 -237.5t-313 -89.5q-230 0 -369 147.5t-139 378.5zM592 887q-136 0 -230 -79.5t-106 -203.5
h662q-8 125 -99 204t-227 79zM582 1243q-47 0 -80 32t-33 79q0 49 32.5 79.5t80.5 30.5t80 -30.5t32 -79.5q0 -47 -32.5 -79t-79.5 -32z" />
    <glyph glyph-name="Eogonek" unicode="&#x118;" horiz-adv-x="1263" 
d="M1006 0h-773v1536h947v-160h-772v-485h550v-160h-550v-571h792v-160h-2q-98 -48 -148.5 -97.5t-50.5 -117.5q0 -57 33 -88t90 -31q37 0 64 12l26 -114q-71 -31 -141 -31q-104 0 -164.5 59.5t-60.5 159.5q0 149 160 248z" />
    <glyph glyph-name="eogonek" unicode="&#x119;" horiz-adv-x="1167" 
d="M88 510q0 223 143 368.5t361 145.5q216 0 350 -131q135 -132 135 -340q0 -1 -6 -82h-819q13 -169 103.5 -256.5t240.5 -87.5q133 0 217 56.5t111 156.5l147 -29q-23 -109 -106 -192l-9 -8q-79 -73 -135 -142q-55 -64 -55 -168q0 -65 38 -100t101 -35q49 0 76 12l29 -114
q-71 -31 -146 -31q-112 0 -180 60.5t-68 168.5q0 122 103 234q-59 -12 -123 -12q-230 0 -369 147.5t-139 378.5zM592 887q-136 0 -230 -79.5t-106 -203.5h662q-8 125 -99 204t-227 79z" />
    <glyph glyph-name="Ecaron" unicode="&#x11a;" horiz-adv-x="1263" 
d="M1200 0h-967v1536h947v-160h-772v-485h550v-160h-550v-571h792v-160zM719 1765l178 174h166l-264 -282h-164l-262 282h168z" />
    <glyph glyph-name="ecaron" unicode="&#x11b;" horiz-adv-x="1167" 
d="M88 510q0 223 143 368.5t361 145.5q216 0 350 -131q135 -132 135 -340q0 -1 -6 -82h-819q13 -169 103.5 -256.5t240.5 -87.5q133 0 217 56.5t111 156.5l147 -29q-32 -148 -162 -237.5t-313 -89.5q-230 0 -369 147.5t-139 378.5zM592 887q-136 0 -230 -79.5t-106 -203.5
h662q-8 125 -99 204t-227 79zM584 1280l178 174h166l-264 -283h-164l-262 283h168z" />
    <glyph glyph-name="Gcircumflex" unicode="&#x11c;" horiz-adv-x="1662" 
d="M301 766q0 -178 67.5 -319t196.5 -222.5t297 -81.5q226 0 372 127t146 330h-682v156h861v-88q0 -308 -192 -497t-505 -189q-163 0 -302 60.5t-235 165t-150 249t-54 309.5q0 166 53 310t148.5 249.5t235.5 166t306 60.5q253 0 433 -131t235 -342l-168 -47
q-41 157 -170 256q-133 103 -330 103q-170 0 -299 -82t-196.5 -223.5t-67.5 -319.5zM1221 1657h-170l-177 172l-178 -172h-166l263 282h163z" />
    <glyph glyph-name="gcircumflex" unicode="&#x11d;" horiz-adv-x="1271" 
d="M88 508q0 223 140 369.5t356 146.5q111 0 204.5 -47t157.5 -133l4 164h156v-998q0 -215 -137 -346t-365 -131q-199 0 -326.5 95t-148.5 245l164 31q18 -102 98.5 -162.5t212.5 -60.5q153 0 246.5 83.5t93.5 235.5v172q-64 -83 -158 -130.5t-202 -47.5q-216 0 -356 146
t-140 368zM256 508q0 -162 96 -264.5t250 -102.5q153 0 248 103q94 101 94 264q0 162 -94 266q-95 103 -248 103q-155 0 -250 -103q-96 -107 -96 -266zM997 1171h-170l-176 172l-178 -172h-166l262 283h164z" />
    <glyph glyph-name="Gbreve" unicode="&#x11e;" horiz-adv-x="1662" 
d="M301 766q0 -178 67.5 -319t196.5 -222.5t297 -81.5q226 0 372 127t146 330h-682v156h861v-88q0 -308 -192 -497t-505 -189q-163 0 -302 60.5t-235 165t-150 249t-54 309.5q0 166 53 310t148.5 249.5t235.5 166t306 60.5q253 0 433 -131t235 -342l-168 -47
q-41 157 -170 256q-133 103 -330 103q-170 0 -299 -82t-196.5 -223.5t-67.5 -319.5zM874 1780q71 0 117 40t47 113h142q0 -127 -84.5 -202.5t-221.5 -75.5q-136 0 -220 75t-85 203h144q0 -73 45 -113t116 -40z" />
    <glyph glyph-name="gbreve" unicode="&#x11f;" horiz-adv-x="1271" 
d="M88 508q0 223 140 369.5t356 146.5q111 0 204.5 -47t157.5 -133l4 164h156v-998q0 -215 -137 -346t-365 -131q-199 0 -326.5 95t-148.5 245l164 31q18 -102 98.5 -162.5t212.5 -60.5q153 0 246.5 83.5t93.5 235.5v172q-64 -83 -158 -130.5t-202 -47.5q-216 0 -356 146
t-140 368zM256 508q0 -162 96 -264.5t250 -102.5q153 0 248 103q94 101 94 264q0 162 -94 266q-95 103 -248 103q-155 0 -250 -103q-96 -107 -96 -266zM653 1294q71 0 117 40.5t47 113.5h141q0 -128 -84.5 -203.5t-220.5 -75.5t-220 75.5t-85 203.5h144q0 -73 45 -113.5
t116 -40.5z" />
    <glyph glyph-name="Gdotaccent" unicode="&#x120;" horiz-adv-x="1662" 
d="M301 766q0 -178 67.5 -319t196.5 -222.5t297 -81.5q226 0 372 127t146 330h-682v156h861v-88q0 -308 -192 -497t-505 -189q-163 0 -302 60.5t-235 165t-150 249t-54 309.5q0 166 53 310t148.5 249.5t235.5 166t306 60.5q253 0 433 -131t235 -342l-168 -47
q-41 157 -170 256q-133 103 -330 103q-170 0 -299 -82t-196.5 -223.5t-67.5 -319.5zM874 1729q-47 0 -79.5 31.5t-32.5 78.5q0 49 32 80t80 31t80.5 -31t32.5 -80q0 -47 -32.5 -78.5t-80.5 -31.5z" />
    <glyph glyph-name="gdotaccent" unicode="&#x121;" horiz-adv-x="1271" 
d="M88 508q0 223 140 369.5t356 146.5q111 0 204.5 -47t157.5 -133l4 164h156v-998q0 -215 -137 -346t-365 -131q-199 0 -326.5 95t-148.5 245l164 31q18 -102 98.5 -162.5t212.5 -60.5q153 0 246.5 83.5t93.5 235.5v172q-64 -83 -158 -130.5t-202 -47.5q-216 0 -356 146
t-140 368zM256 508q0 -162 96 -264.5t250 -102.5q153 0 248 103q94 101 94 264q0 162 -94 266q-95 103 -248 103q-155 0 -250 -103q-96 -107 -96 -266zM651 1243q-47 0 -79.5 32t-32.5 79q0 49 32 79.5t80 30.5t80.5 -30.5t32.5 -79.5q0 -47 -33 -79t-80 -32z" />
    <glyph glyph-name="uni0122" unicode="&#x122;" horiz-adv-x="1662" 
d="M301 766q0 -178 67.5 -319t196.5 -222.5t297 -81.5q226 0 372 127t146 330h-682v156h861v-88q0 -308 -192 -497t-505 -189q-163 0 -302 60.5t-235 165t-150 249t-54 309.5q0 166 53 310t148.5 249.5t235.5 166t306 60.5q253 0 433 -131t235 -342l-168 -47
q-41 157 -170 256q-133 103 -330 103q-170 0 -299 -82t-196.5 -223.5t-67.5 -319.5zM676 -420l119 291h170l-170 -291h-119z" />
    <glyph glyph-name="uni0123" unicode="&#x123;" horiz-adv-x="1271" 
d="M88 508q0 223 140 369.5t356 146.5q111 0 204.5 -47t157.5 -133l4 164h156v-998q0 -215 -137 -346t-365 -131q-199 0 -326.5 95t-148.5 245l164 31q18 -102 98.5 -162.5t212.5 -60.5q153 0 246.5 83.5t93.5 235.5v172q-64 -83 -158 -130.5t-202 -47.5q-216 0 -356 146
t-140 368zM256 508q0 -162 96 -264.5t250 -102.5q153 0 248 103q94 101 94 264q0 162 -94 266q-95 103 -248 103q-155 0 -250 -103q-96 -107 -96 -266zM549 1141l170 291h119l-117 -291h-172z" />
    <glyph glyph-name="Hcircumflex" unicode="&#x124;" horiz-adv-x="1701" 
d="M408 0h-175v1536h175v-641h888v641h174v-1536h-174v735h-888v-735zM1198 1657h-170l-176 172l-178 -172h-166l262 282h164z" />
    <glyph glyph-name="hcircumflex" unicode="&#x125;" horiz-adv-x="1187" 
d="M328 0h-160v1536h160v-676q53 76 136.5 120t188.5 44q113 0 201 -46t141.5 -142.5t53.5 -231.5v-604h-160v590q0 137 -73 210.5t-193 73.5q-117 0 -205 -79q-90 -81 -90 -240v-555zM846 1612h-170l-176 172l-178 -172h-166l262 282h164z" />
    <glyph glyph-name="Itilde" unicode="&#x128;" horiz-adv-x="641" 
d="M408 0h-175v1536h175v-1536zM455 1686q-38 0 -72.5 18t-56 39t-50 39t-55.5 18q-83 0 -80 -119h-121q-4 115 42 180.5t128 65.5q37 0 74 -17.5t61 -38.5t52.5 -38.5t52.5 -17.5q79 0 76 112h121q7 -112 -40 -176.5t-132 -64.5z" />
    <glyph glyph-name="itilde" unicode="&#x129;" 
d="M328 0h-160v1008h160v-1008zM383 1200q-38 0 -72.5 18t-56 39.5t-49.5 39.5t-55 18q-83 0 -80 -119h-121q-4 115 42 180.5t128 65.5q37 0 73.5 -17.5t60.5 -39t52.5 -39t52.5 -17.5q79 0 76 113h121q7 -112 -40 -177t-132 -65z" />
    <glyph glyph-name="Imacron" unicode="&#x12a;" horiz-adv-x="641" 
d="M408 0h-175v1536h175v-1536zM27 1751v137h585v-137h-585z" />
    <glyph glyph-name="imacron" unicode="&#x12b;" 
d="M328 0h-160v1008h160v-1008zM-45 1266v137h586v-137h-586z" />
    <glyph glyph-name="Ibreve" unicode="&#x12c;" horiz-adv-x="641" 
d="M408 0h-175v1536h175v-1536zM319 1780q71 0 117 40t47 113h142q0 -127 -84.5 -202.5t-221.5 -75.5q-136 0 -220 75t-85 203h144q0 -73 45 -113t116 -40z" />
    <glyph glyph-name="ibreve" unicode="&#x12d;" 
d="M328 0h-160v1008h160v-1008zM248 1294q71 0 117 40.5t47 113.5h141q0 -128 -84.5 -203.5t-220.5 -75.5t-220 75.5t-85 203.5h143q0 -73 45.5 -113.5t116.5 -40.5z" />
    <glyph glyph-name="Iogonek" unicode="&#x12e;" horiz-adv-x="641" 
d="M279 -467q-104 0 -165 59.5t-61 159.5q0 158 180 260v1524h175v-1536h-2q-98 -48 -148.5 -97.5t-50.5 -117.5q0 -57 33 -88t90 -31q36 0 63 12l27 -114q-71 -31 -141 -31z" />
    <glyph glyph-name="iogonek" unicode="&#x12f;" 
d="M360 1354q0 -47 -32.5 -79t-79.5 -32t-79 32t-32 79q0 49 31.5 79.5t79.5 30.5t80 -30.5t32 -79.5zM201 -467q-104 0 -165 59.5t-61 159.5q0 162 193 266v990h160v-1008q-98 -48 -148.5 -97.5t-50.5 -117.5q0 -57 33 -88t90 -31q36 0 63 12l27 -114q-71 -31 -141 -31z
" />
    <glyph glyph-name="Idotaccent" unicode="&#x130;" horiz-adv-x="641" 
d="M408 0h-175v1536h175v-1536zM319 1729q-47 0 -79.5 31.5t-32.5 78.5q0 49 32 80t80 31t80.5 -31t32.5 -80q0 -47 -32.5 -78.5t-80.5 -31.5z" />
    <glyph glyph-name="dotlessi" unicode="&#x131;" 
d="M328 0h-160v1008h160v-1008z" />
    <glyph glyph-name="uni0136" unicode="&#x136;" horiz-adv-x="1429" 
d="M627 727h-219v-727h-175v1536h175v-647h225l553 647h209l-619 -723l635 -813h-209zM563 -420l119 291h170l-170 -291h-119z" />
    <glyph glyph-name="uni0137" unicode="&#x137;" horiz-adv-x="1050" 
d="M467 631l348 377h197l-412 -449l438 -559h-194l-381 475h-135v-475h-160v1536h160v-905h139zM375 -420l119 291h170l-170 -291h-119z" />
    <glyph glyph-name="Lacute" unicode="&#x139;" horiz-adv-x="1193" 
d="M1155 0h-922v1536h175v-1376h747v-160zM233 1657l205 282h207l-262 -282h-150z" />
    <glyph glyph-name="lacute" unicode="&#x13a;" 
d="M328 0h-160v1536h160v-1536zM158 1612l204 282h207l-262 -282h-149z" />
    <glyph glyph-name="uni013B" unicode="&#x13b;" horiz-adv-x="1193" 
d="M1155 0h-922v1536h175v-1376h747v-160zM516 -420l119 291h170l-170 -291h-119z" />
    <glyph glyph-name="uni013C" unicode="&#x13c;" 
d="M328 0h-160v1536h160v-1536zM41 -420l119 291h170l-170 -291h-119z" />
    <glyph glyph-name="Nacute" unicode="&#x143;" horiz-adv-x="1685" 
d="M399 0h-166v1536h187l864 -1280v1280h168v-1536h-186l-867 1284v-1284zM748 1657l204 282h207l-262 -282h-149z" />
    <glyph glyph-name="nacute" unicode="&#x144;" horiz-adv-x="1193" 
d="M328 0h-160v1008h154l4 -152q53 78 136.5 123t190.5 45q113 0 201 -46t141.5 -142.5t53.5 -231.5v-604h-160v590q0 137 -73 210.5t-193 73.5q-117 0 -205 -79q-90 -81 -90 -240v-555zM481 1171l205 283h207l-262 -283h-150z" />
    <glyph glyph-name="uni0145" unicode="&#x145;" horiz-adv-x="1685" 
d="M399 0h-166v1536h187l864 -1280v1280h168v-1536h-186l-867 1284v-1284zM668 -420l118 291h170l-170 -291h-118z" />
    <glyph glyph-name="uni0146" unicode="&#x146;" horiz-adv-x="1193" 
d="M328 0h-160v1008h154l4 -152q53 78 136.5 123t190.5 45q113 0 201 -46t141.5 -142.5t53.5 -231.5v-604h-160v590q0 137 -73 210.5t-193 73.5q-117 0 -205 -79q-90 -81 -90 -240v-555zM418 -420l119 291h170l-170 -291h-119z" />
    <glyph glyph-name="Ncaron" unicode="&#x147;" horiz-adv-x="1685" 
d="M399 0h-166v1536h187l864 -1280v1280h168v-1536h-186l-867 1284v-1284zM868 1765l179 174h165l-264 -282h-164l-262 282h168z" />
    <glyph glyph-name="ncaron" unicode="&#x148;" horiz-adv-x="1193" 
d="M328 0h-160v1008h154l4 -152q53 78 136.5 123t190.5 45q113 0 201 -46t141.5 -142.5t53.5 -231.5v-604h-160v590q0 137 -73 210.5t-193 73.5q-117 0 -205 -79q-90 -81 -90 -240v-555zM606 1280l178 174h166l-264 -283h-164l-262 283h168z" />
    <glyph glyph-name="Omacron" unicode="&#x14c;" horiz-adv-x="1736" 
d="M121 768q0 225 94 404t264.5 279.5t388.5 100.5q164 0 304 -59t237 -162t152 -248.5t55 -314.5q0 -168 -55 -313.5t-152 -249t-237 -162.5t-304 -59q-218 0 -388.5 101t-264.5 279.5t-94 403.5zM1436 768q0 277 -157 450t-411 173q-257 0 -412 -172.5t-155 -450.5
t155 -450.5t412 -172.5q254 0 411 173t157 450zM575 1751v137h586v-137h-586z" />
    <glyph glyph-name="omacron" unicode="&#x14d;" horiz-adv-x="1216" 
d="M608 1024q226 0 373 -147t147 -371q0 -227 -147 -374.5t-373 -147.5t-373 147.5t-147 374.5q0 224 147 371t373 147zM608 877q-152 0 -252 -103t-100 -268q0 -167 100 -270q99 -105 252 -105q152 0 254 105q99 105 99 270q0 163 -99 268q-103 103 -254 103zM313 1266v137
h586v-137h-586z" />
    <glyph glyph-name="Obreve" unicode="&#x14e;" horiz-adv-x="1736" 
d="M121 768q0 225 94 404t264.5 279.5t388.5 100.5q164 0 304 -59t237 -162t152 -248.5t55 -314.5q0 -168 -55 -313.5t-152 -249t-237 -162.5t-304 -59q-218 0 -388.5 101t-264.5 279.5t-94 403.5zM1436 768q0 277 -157 450t-411 173q-257 0 -412 -172.5t-155 -450.5
t155 -450.5t412 -172.5q254 0 411 173t157 450zM868 1780q71 0 117 40t47 113h142q0 -127 -84.5 -202.5t-221.5 -75.5q-136 0 -220 75t-85 203h144q0 -73 45 -113t116 -40z" />
    <glyph glyph-name="obreve" unicode="&#x14f;" horiz-adv-x="1216" 
d="M608 1024q226 0 373 -147t147 -371q0 -227 -147 -374.5t-373 -147.5t-373 147.5t-147 374.5q0 224 147 371t373 147zM608 877q-152 0 -252 -103t-100 -268q0 -167 100 -270q99 -105 252 -105q152 0 254 105q99 105 99 270q0 163 -99 268q-103 103 -254 103zM606 1294
q71 0 117 40.5t47 113.5h141q0 -128 -84.5 -203.5t-220.5 -75.5t-220 75.5t-85 203.5h143q0 -73 45.5 -113.5t116.5 -40.5z" />
    <glyph glyph-name="Ohungarumlaut" unicode="&#x150;" horiz-adv-x="1736" 
d="M121 768q0 225 94 404t264.5 279.5t388.5 100.5q164 0 304 -59t237 -162t152 -248.5t55 -314.5q0 -168 -55 -313.5t-152 -249t-237 -162.5t-304 -59q-218 0 -388.5 101t-264.5 279.5t-94 403.5zM1436 768q0 277 -157 450t-411 173q-257 0 -412 -172.5t-155 -450.5
t155 -450.5t412 -172.5q254 0 411 173t157 450zM985 1939l-207 -282h-131l168 282h170zM1284 1939l-221 -282h-135l176 282h180z" />
    <glyph glyph-name="ohungarumlaut" unicode="&#x151;" horiz-adv-x="1216" 
d="M608 1024q226 0 373 -147t147 -371q0 -227 -147 -374.5t-373 -147.5t-373 147.5t-147 374.5q0 224 147 371t373 147zM608 877q-152 0 -252 -103t-100 -268q0 -167 100 -270q99 -105 252 -105q152 0 254 105q99 105 99 270q0 163 -99 268q-103 103 -254 103zM723 1454
l-207 -283h-131l168 283h170zM1022 1454l-221 -283h-135l176 283h180z" />
    <glyph glyph-name="Racute" unicode="&#x154;" horiz-adv-x="1431" 
d="M408 0h-175v1536h560q203 0 331 -119q129 -120 129 -311q0 -155 -91.5 -264t-237.5 -142l465 -700h-201l-449 676h-331v-676zM791 1376h-383v-540h374q130 0 211.5 75.5t81.5 194.5q0 122 -77.5 196t-206.5 74zM567 1657l205 282h207l-262 -282h-150z" />
    <glyph glyph-name="racute" unicode="&#x155;" horiz-adv-x="749" 
d="M328 0h-160v1008h158l4 -160q44 81 123.5 128.5t181.5 47.5q51 0 100 -14l-24 -158q-49 14 -103 14q-119 0 -199.5 -91t-80.5 -251v-524zM328 1171l204 283h207l-262 -283h-149z" />
    <glyph glyph-name="uni0156" unicode="&#x156;" horiz-adv-x="1431" 
d="M408 0h-175v1536h560q203 0 331 -119q129 -120 129 -311q0 -155 -91.5 -264t-237.5 -142l465 -700h-201l-449 676h-331v-676zM791 1376h-383v-540h374q130 0 211.5 75.5t81.5 194.5q0 122 -77.5 196t-206.5 74zM580 -420l118 291h170l-170 -291h-118z" />
    <glyph glyph-name="uni0157" unicode="&#x157;" horiz-adv-x="749" 
d="M328 0h-160v1008h158l4 -160q44 81 123.5 128.5t181.5 47.5q51 0 100 -14l-24 -158q-49 14 -103 14q-119 0 -199.5 -91t-80.5 -251v-524zM47 -420l119 291h170l-170 -291h-119z" />
    <glyph glyph-name="Rcaron" unicode="&#x158;" horiz-adv-x="1431" 
d="M408 0h-175v1536h560q203 0 331 -119q129 -120 129 -311q0 -155 -91.5 -264t-237.5 -142l465 -700h-201l-449 676h-331v-676zM791 1376h-383v-540h374q130 0 211.5 75.5t81.5 194.5q0 122 -77.5 196t-206.5 74zM719 1765l178 174h166l-264 -282h-164l-262 282h168z" />
    <glyph glyph-name="rcaron" unicode="&#x159;" horiz-adv-x="749" 
d="M328 0h-160v1008h158l4 -160q44 81 123.5 128.5t181.5 47.5q51 0 100 -14l-24 -158q-49 14 -103 14q-119 0 -199.5 -91t-80.5 -251v-524zM449 1280l178 174h166l-265 -283h-163l-263 283h168z" />
    <glyph glyph-name="Sacute" unicode="&#x15a;" horiz-adv-x="1357" 
d="M1206 1153l-166 -45q-21 131 -120.5 210t-251.5 79q-161 0 -255 -64.5t-94 -179.5q0 -54 23.5 -96.5t52 -68t92 -49.5t101.5 -33.5t124 -29.5q11 -3 17 -4q63 -14 110 -26t103.5 -32t96.5 -42t80 -56t64.5 -74t40 -94.5t15.5 -119.5q0 -206 -152.5 -325t-402.5 -119
q-111 0 -204 23t-161.5 64t-118 98.5t-76.5 125.5t-34 145l172 45q14 -154 125.5 -249t302.5 -95q160 0 265.5 72.5t105.5 202.5q0 57 -20.5 101.5t-51.5 73.5t-85.5 52.5t-103.5 36.5t-124 29q-72 16 -110.5 25t-104 29.5t-102.5 40t-84 53t-71.5 72t-42.5 93.5t-18 121
q0 126 70.5 220t189.5 141.5t269 47.5q217 0 361 -107.5t173 -291.5zM563 1657l205 282h207l-262 -282h-150z" />
    <glyph glyph-name="sacute" unicode="&#x15b;" horiz-adv-x="978" 
d="M494 -16q-182 0 -289.5 81.5t-134.5 227.5l161 33q14 -96 83 -151.5t188 -55.5q106 0 169.5 42t63.5 122q0 20 -4 37.5t-15 31t-20.5 23.5t-30 19t-33 14t-40 11.5t-41 9.5t-46.5 9t-46 8q-39 8 -57.5 11.5t-55 12.5t-55.5 16.5t-49 21t-46.5 27.5t-36.5 34.5t-30.5 44.5
t-17.5 55.5t-7 67.5q0 125 104 206t273 81q165 0 267 -70.5t126 -195.5l-155 -31q-38 166 -240 166q-102 0 -156.5 -41t-54.5 -109q0 -81 76 -108q79 -28 176 -45q43 -8 60.5 -11.5t58 -13t59.5 -16.5t52.5 -21t50.5 -28t39.5 -36t33.5 -46t19 -56.5t8 -70.5
q0 -136 -106.5 -221.5t-300.5 -85.5zM391 1171l205 283h207l-262 -283h-150z" />
    <glyph glyph-name="Scircumflex" unicode="&#x15c;" horiz-adv-x="1357" 
d="M1206 1153l-166 -45q-21 131 -120.5 210t-251.5 79q-161 0 -255 -64.5t-94 -179.5q0 -54 23.5 -96.5t52 -68t92 -49.5t101.5 -33.5t124 -29.5q11 -3 17 -4q63 -14 110 -26t103.5 -32t96.5 -42t80 -56t64.5 -74t40 -94.5t15.5 -119.5q0 -206 -152.5 -325t-402.5 -119
q-111 0 -204 23t-161.5 64t-118 98.5t-76.5 125.5t-34 145l172 45q14 -154 125.5 -249t302.5 -95q160 0 265.5 72.5t105.5 202.5q0 57 -20.5 101.5t-51.5 73.5t-85.5 52.5t-103.5 36.5t-124 29q-72 16 -110.5 25t-104 29.5t-102.5 40t-84 53t-71.5 72t-42.5 93.5t-18 121
q0 126 70.5 220t189.5 141.5t269 47.5q217 0 361 -107.5t173 -291.5zM1042 1657h-170l-176 172l-178 -172h-166l262 282h164z" />
    <glyph glyph-name="scircumflex" unicode="&#x15d;" horiz-adv-x="978" 
d="M494 -16q-182 0 -289.5 81.5t-134.5 227.5l161 33q14 -96 83 -151.5t188 -55.5q106 0 169.5 42t63.5 122q0 20 -4 37.5t-15 31t-20.5 23.5t-30 19t-33 14t-40 11.5t-41 9.5t-46.5 9t-46 8q-39 8 -57.5 11.5t-55 12.5t-55.5 16.5t-49 21t-46.5 27.5t-36.5 34.5t-30.5 44.5
t-17.5 55.5t-7 67.5q0 125 104 206t273 81q165 0 267 -70.5t126 -195.5l-155 -31q-38 166 -240 166q-102 0 -156.5 -41t-54.5 -109q0 -81 76 -108q79 -28 176 -45q43 -8 60.5 -11.5t58 -13t59.5 -16.5t52.5 -21t50.5 -28t39.5 -36t33.5 -46t19 -56.5t8 -70.5
q0 -136 -106.5 -221.5t-300.5 -85.5zM850 1171h-170l-176 172l-178 -172h-166l262 283h164z" />
    <glyph glyph-name="Scedilla" unicode="&#x15e;" horiz-adv-x="1357" 
d="M762 -12l-90 -334h-158l90 334q-234 20 -368 144t-146 308l172 45q14 -154 125.5 -249t302.5 -95q160 0 265.5 72.5t105.5 202.5q0 57 -20.5 101.5t-51.5 73.5t-85.5 52.5t-103.5 36.5t-124 29q-72 16 -110.5 25t-104 29.5t-102.5 40t-84 53t-71.5 72t-42.5 93.5t-18 121
q0 126 70.5 220t189.5 141.5t269 47.5q217 0 361 -107.5t173 -291.5l-166 -45q-21 131 -120.5 210t-251.5 79q-161 0 -255 -64.5t-94 -179.5q0 -54 23.5 -96.5t52 -68t92 -49.5t101.5 -33.5t124 -29.5q11 -3 17 -4q63 -14 110 -26t103.5 -32t96.5 -42t80 -56t64.5 -74
t40 -94.5t15.5 -119.5q0 -191 -131 -307q-133 -118 -346 -133z" />
    <glyph glyph-name="scedilla" unicode="&#x15f;" horiz-adv-x="978" 
d="M588 -10l-90 -336h-158l90 332q-152 13 -243.5 93.5t-116.5 213.5l161 33q14 -96 83 -151.5t188 -55.5q106 0 169.5 42t63.5 122q0 20 -4 37.5t-15 31t-20.5 23.5t-30 19t-33 14t-40 11.5t-41 9.5t-46.5 9t-46 8q-39 8 -57.5 11.5t-55 12.5t-55.5 16.5t-49 21t-46.5 27.5
t-36.5 34.5t-30.5 44.5t-17.5 55.5t-7 67.5q0 125 104 206t273 81q165 0 267 -70.5t126 -195.5l-155 -31q-38 166 -240 166q-102 0 -156.5 -41t-54.5 -109q0 -81 76 -108q79 -28 176 -45q43 -8 60.5 -11.5t58 -13t59.5 -16.5t52.5 -21t50.5 -28t39.5 -36t33.5 -46t19 -56.5
t8 -70.5q0 -119 -81.5 -200t-231.5 -101z" />
    <glyph glyph-name="Scaron" unicode="&#x160;" horiz-adv-x="1357" 
d="M1206 1153l-166 -45q-21 131 -120.5 210t-251.5 79q-161 0 -255 -64.5t-94 -179.5q0 -54 23.5 -96.5t52 -68t92 -49.5t101.5 -33.5t124 -29.5q11 -3 17 -4q63 -14 110 -26t103.5 -32t96.5 -42t80 -56t64.5 -74t40 -94.5t15.5 -119.5q0 -206 -152.5 -325t-402.5 -119
q-111 0 -204 23t-161.5 64t-118 98.5t-76.5 125.5t-34 145l172 45q14 -154 125.5 -249t302.5 -95q160 0 265.5 72.5t105.5 202.5q0 57 -20.5 101.5t-51.5 73.5t-85.5 52.5t-103.5 36.5t-124 29q-72 16 -110.5 25t-104 29.5t-102.5 40t-84 53t-71.5 72t-42.5 93.5t-18 121
q0 126 70.5 220t189.5 141.5t269 47.5q217 0 361 -107.5t173 -291.5zM688 1765l178 174h166l-264 -282h-164l-262 282h168z" />
    <glyph glyph-name="scaron" unicode="&#x161;" horiz-adv-x="978" 
d="M494 -16q-182 0 -289.5 81.5t-134.5 227.5l161 33q14 -96 83 -151.5t188 -55.5q106 0 169.5 42t63.5 122q0 20 -4 37.5t-15 31t-20.5 23.5t-30 19t-33 14t-40 11.5t-41 9.5t-46.5 9t-46 8q-39 8 -57.5 11.5t-55 12.5t-55.5 16.5t-49 21t-46.5 27.5t-36.5 34.5t-30.5 44.5
t-17.5 55.5t-7 67.5q0 125 104 206t273 81q165 0 267 -70.5t126 -195.5l-155 -31q-38 166 -240 166q-102 0 -156.5 -41t-54.5 -109q0 -81 76 -108q79 -28 176 -45q43 -8 60.5 -11.5t58 -13t59.5 -16.5t52.5 -21t50.5 -28t39.5 -36t33.5 -46t19 -56.5t8 -70.5
q0 -136 -106.5 -221.5t-300.5 -85.5zM506 1280l178 174h166l-264 -283h-164l-262 283h168z" />
    <glyph glyph-name="uni0162" unicode="&#x162;" horiz-adv-x="1241" 
d="M707 0h-175v1376h-491v160h1159v-160h-493v-1376zM414 -420l118 291h170l-170 -291h-118z" />
    <glyph glyph-name="uni0163" unicode="&#x163;" horiz-adv-x="761" 
d="M18 868v39l299 279h37v-178h377v-140h-377v-557q0 -93 43.5 -136.5t132.5 -43.5q63 0 154 35l37 -133q-114 -49 -215 -49q-149 0 -231 79t-82 222v583h-175zM209 -420l119 291h170l-170 -291h-119z" />
    <glyph glyph-name="Utilde" unicode="&#x168;" horiz-adv-x="1568" 
d="M784 145q182 0 293 111.5t111 304.5v975h174v-973q0 -265 -160.5 -422t-417.5 -157t-417 157t-160 422v973h174v-975q0 -194 111 -305t292 -111zM920 1686q-38 0 -72.5 18t-56 39t-50 39t-55.5 18q-83 0 -80 -119h-121q-4 115 42 180.5t128 65.5q37 0 74 -17.5t61 -38.5
t52.5 -38.5t52.5 -17.5q79 0 76 112h121q7 -112 -40 -176.5t-132 -64.5z" />
    <glyph glyph-name="utilde" unicode="&#x169;" horiz-adv-x="1173" 
d="M143 1008h160v-605q0 -127 72 -199.5t192 -72.5q55 0 103.5 17.5t88.5 52.5t63.5 94.5t23.5 136.5v576h160v-1008h-148l-4 147q-54 -79 -138.5 -121t-187.5 -42q-168 0 -274 106q-111 108 -111 299v619zM721 1200q-38 0 -72.5 18t-56 39.5t-50 39.5t-55.5 18
q-82 0 -79 -119h-121q-4 115 42 180.5t128 65.5q37 0 73.5 -17.5t60.5 -39t52.5 -39t52.5 -17.5q79 0 76 113h121q7 -112 -40 -177t-132 -65z" />
    <glyph glyph-name="Umacron" unicode="&#x16a;" horiz-adv-x="1568" 
d="M784 145q182 0 293 111.5t111 304.5v975h174v-973q0 -265 -160.5 -422t-417.5 -157t-417 157t-160 422v973h174v-975q0 -194 111 -305t292 -111zM492 1751v137h585v-137h-585z" />
    <glyph glyph-name="umacron" unicode="&#x16b;" horiz-adv-x="1173" 
d="M143 1008h160v-605q0 -127 72 -199.5t192 -72.5q55 0 103.5 17.5t88.5 52.5t63.5 94.5t23.5 136.5v576h160v-1008h-148l-4 147q-54 -79 -138.5 -121t-187.5 -42q-168 0 -274 106q-111 108 -111 299v619zM293 1266v137h586v-137h-586z" />
    <glyph glyph-name="Ubreve" unicode="&#x16c;" horiz-adv-x="1568" 
d="M784 145q182 0 293 111.5t111 304.5v975h174v-973q0 -265 -160.5 -422t-417.5 -157t-417 157t-160 422v973h174v-975q0 -194 111 -305t292 -111zM784 1780q71 0 117 40t47 113h142q0 -127 -84.5 -202.5t-221.5 -75.5q-136 0 -220 75t-85 203h144q0 -73 45 -113t116 -40z
" />
    <glyph glyph-name="ubreve" unicode="&#x16d;" horiz-adv-x="1173" 
d="M143 1008h160v-605q0 -127 72 -199.5t192 -72.5q55 0 103.5 17.5t88.5 52.5t63.5 94.5t23.5 136.5v576h160v-1008h-148l-4 147q-54 -79 -138.5 -121t-187.5 -42q-168 0 -274 106q-111 108 -111 299v619zM586 1294q71 0 117 40.5t47 113.5h141q0 -128 -84.5 -203.5
t-220.5 -75.5t-220 75.5t-85 203.5h143q0 -73 45.5 -113.5t116.5 -40.5z" />
    <glyph glyph-name="Uring" unicode="&#x16e;" horiz-adv-x="1568" 
d="M784 145q182 0 293 111.5t111 304.5v975h174v-973q0 -265 -160.5 -422t-417.5 -157t-417 157t-160 422v973h174v-975q0 -194 111 -305t292 -111zM784 1858q86 0 142.5 -51t56.5 -132t-57 -134.5t-142 -53.5t-140.5 52.5t-55.5 133.5t55.5 133t140.5 52zM684 1673
q0 -44 28 -72t72 -28t72.5 28t28.5 72q0 43 -28.5 71t-72.5 28t-72 -28t-28 -71z" />
    <glyph glyph-name="uring" unicode="&#x16f;" horiz-adv-x="1173" 
d="M143 1008h160v-605q0 -127 72 -199.5t192 -72.5q55 0 103.5 17.5t88.5 52.5t63.5 94.5t23.5 136.5v576h160v-1008h-148l-4 147q-54 -79 -138.5 -121t-187.5 -42q-168 0 -274 106q-111 108 -111 299v619zM582 1526q86 0 142 -51t56 -132t-56.5 -134.5t-141.5 -53.5
t-141 52.5t-56 133.5t56 133t141 52zM481 1341q0 -44 28.5 -72t72.5 -28t72 28t28 72q0 43 -28 71t-72 28t-72.5 -28t-28.5 -71z" />
    <glyph glyph-name="Uhungarumlaut" unicode="&#x170;" horiz-adv-x="1568" 
d="M784 145q182 0 293 111.5t111 304.5v975h174v-973q0 -265 -160.5 -422t-417.5 -157t-417 157t-160 422v973h174v-975q0 -194 111 -305t292 -111zM899 1939l-207 -282h-131l168 282h170zM1198 1939l-221 -282h-135l176 282h180z" />
    <glyph glyph-name="uhungarumlaut" unicode="&#x171;" horiz-adv-x="1173" 
d="M143 1008h160v-605q0 -127 72 -199.5t192 -72.5q55 0 103.5 17.5t88.5 52.5t63.5 94.5t23.5 136.5v576h160v-1008h-148l-4 147q-54 -79 -138.5 -121t-187.5 -42q-168 0 -274 106q-111 108 -111 299v619zM702 1454l-206 -283h-131l167 283h170zM1001 1454l-221 -283h-135
l176 283h180z" />
    <glyph glyph-name="Uogonek" unicode="&#x172;" horiz-adv-x="1568" 
d="M784 145q182 0 293 111.5t111 304.5v975h174v-973q0 -157 -58.5 -278.5t-164.5 -196.5q-89 -75 -130.5 -138.5t-41.5 -146.5q0 -66 36.5 -101.5t98.5 -35.5q45 0 72 12l28 -114q-74 -31 -147 -31q-106 0 -173 65.5t-67 170.5q0 124 82 223q-47 -8 -113 -8
q-257 0 -417 157t-160 422v973h174v-975q0 -194 111 -305t292 -111z" />
    <glyph glyph-name="uogonek" unicode="&#x173;" horiz-adv-x="1173" 
d="M879 -467q-104 0 -165 59.5t-61 159.5q0 170 205 273l-4 122q-54 -79 -138.5 -121t-187.5 -42q-168 0 -274 106q-111 108 -111 299v619h160v-605q0 -127 72 -199.5t192 -72.5q55 0 103.5 17.5t88.5 52.5t63.5 94.5t23.5 136.5v576h160v-1008q-98 -48 -148.5 -97.5
t-50.5 -117.5q0 -57 33 -88t90 -31q36 0 63 12l27 -114q-71 -31 -141 -31z" />
    <glyph glyph-name="Wcircumflex" unicode="&#x174;" horiz-adv-x="1931" 
d="M532 223l410 821h43l414 -819l293 1311h174l-342 -1536h-191l-370 735l-367 -735h-188l-342 1536h174zM1313 1657h-170l-176 172l-179 -172h-165l262 282h164z" />
    <glyph glyph-name="wcircumflex" unicode="&#x175;" horiz-adv-x="1357" 
d="M285 0l-240 1008h162l192 -815l267 528h28l269 -533l192 820h158l-240 -1008h-174l-219 436l-221 -436h-174zM1024 1171h-170l-176 172l-178 -172h-166l262 283h164z" />
    <glyph glyph-name="Ycircumflex" unicode="&#x176;" horiz-adv-x="1337" 
d="M758 0h-174v680l-568 856h205l455 -690l450 690h197l-565 -856v-680zM1016 1700h-170l-176 172l-178 -172h-166l262 282h164z" />
    <glyph glyph-name="ycircumflex" unicode="&#x177;" horiz-adv-x="1044" 
d="M455 8l-439 1000h181l346 -795l313 795h170l-588 -1459h-168zM868 1171h-170l-176 172l-178 -172h-166l262 283h164z" />
    <glyph glyph-name="Ydieresis" unicode="&#x178;" horiz-adv-x="1337" 
d="M758 0h-174v680l-568 856h205l455 -690l450 690h197l-565 -856v-680zM481 1778q-44 0 -75 31t-31 75t31 74.5t75 30.5t74.5 -30.5t30.5 -74.5t-30.5 -75t-74.5 -31zM860 1778q-44 0 -75 31t-31 75t31 74.5t75 30.5t75.5 -30.5t31.5 -74.5t-31.5 -75t-75.5 -31z" />
    <glyph glyph-name="Zacute" unicode="&#x179;" horiz-adv-x="1261" 
d="M86 1376v160h1135v-39l-904 -1337h873v-160h-1147v39l901 1337h-858zM508 1700l205 282h207l-263 -282h-149z" />
    <glyph glyph-name="zacute" unicode="&#x17a;" horiz-adv-x="888" 
d="M279 139h565v-139h-809v39l569 829h-538v140h786v-39zM342 1171l205 283h207l-262 -283h-150z" />
    <glyph glyph-name="Zdotaccent" unicode="&#x17b;" horiz-adv-x="1261" 
d="M86 1376v160h1135v-39l-904 -1337h873v-160h-1147v39l901 1337h-858zM631 1772q-48 0 -80.5 31.5t-32.5 78.5q0 49 32.5 80t80.5 31t80 -31t32 -80q0 -47 -32.5 -78.5t-79.5 -31.5z" />
    <glyph glyph-name="zdotaccent" unicode="&#x17c;" horiz-adv-x="888" 
d="M279 139h565v-139h-809v39l569 829h-538v140h786v-39zM465 1243q-47 0 -80 32t-33 79q0 49 32.5 79.5t80.5 30.5t80.5 -30.5t32.5 -79.5q0 -47 -33 -79t-80 -32z" />
    <glyph glyph-name="Zcaron" unicode="&#x17d;" horiz-adv-x="1261" 
d="M86 1376v160h1135v-39l-904 -1337h873v-160h-1147v39l901 1337h-858zM649 1808l178 174h166l-264 -282h-164l-262 282h168z" />
    <glyph glyph-name="zcaron" unicode="&#x17e;" horiz-adv-x="888" 
d="M279 139h565v-139h-809v39l569 829h-538v140h786v-39zM467 1280l178 174h166l-264 -283h-164l-262 283h168z" />
    <glyph glyph-name="uni0218" unicode="&#x218;" horiz-adv-x="1357" 
d="M1206 1153l-166 -45q-21 131 -120.5 210t-251.5 79q-161 0 -255 -64.5t-94 -179.5q0 -54 23.5 -96.5t52 -68t92 -49.5t101.5 -33.5t124 -29.5q11 -3 17 -4q63 -14 110 -26t103.5 -32t96.5 -42t80 -56t64.5 -74t40 -94.5t15.5 -119.5q0 -206 -152.5 -325t-402.5 -119
q-111 0 -204 23t-161.5 64t-118 98.5t-76.5 125.5t-34 145l172 45q14 -154 125.5 -249t302.5 -95q160 0 265.5 72.5t105.5 202.5q0 57 -20.5 101.5t-51.5 73.5t-85.5 52.5t-103.5 36.5t-124 29q-72 16 -110.5 25t-104 29.5t-102.5 40t-84 53t-71.5 72t-42.5 93.5t-18 121
q0 126 70.5 220t189.5 141.5t269 47.5q217 0 361 -107.5t173 -291.5zM528 -420l119 291h170l-170 -291h-119z" />
    <glyph glyph-name="uni0219" unicode="&#x219;" horiz-adv-x="978" 
d="M494 -16q-182 0 -289.5 81.5t-134.5 227.5l161 33q14 -96 83 -151.5t188 -55.5q106 0 169.5 42t63.5 122q0 20 -4 37.5t-15 31t-20.5 23.5t-30 19t-33 14t-40 11.5t-41 9.5t-46.5 9t-46 8q-39 8 -57.5 11.5t-55 12.5t-55.5 16.5t-49 21t-46.5 27.5t-36.5 34.5t-30.5 44.5
t-17.5 55.5t-7 67.5q0 125 104 206t273 81q165 0 267 -70.5t126 -195.5l-155 -31q-38 166 -240 166q-102 0 -156.5 -41t-54.5 -109q0 -81 76 -108q79 -28 176 -45q43 -8 60.5 -11.5t58 -13t59.5 -16.5t52.5 -21t50.5 -28t39.5 -36t33.5 -46t19 -56.5t8 -70.5
q0 -136 -106.5 -221.5t-300.5 -85.5zM307 -420l119 291h170l-170 -291h-119z" />
    <glyph glyph-name="uni0401" unicode="&#x401;" horiz-adv-x="1263" 
d="M1200 0h-967v1536h947v-160h-772v-485h550v-160h-550v-571h792v-160zM528 1735q-44 0 -75 31t-31 75t31 74.5t75 30.5t74.5 -30.5t30.5 -74.5t-30.5 -75t-74.5 -31zM907 1735q-44 0 -75 31t-31 75t31 74.5t75 30.5t75.5 -30.5t31.5 -74.5t-31.5 -75t-75.5 -31z" />
    <glyph glyph-name="uni0403" unicode="&#x403;" horiz-adv-x="1171" 
d="M408 0h-175v1536h920v-160h-745v-1376zM592 1657l205 282h207l-263 -282h-149z" />
    <glyph glyph-name="uni040E" unicode="&#x40e;" horiz-adv-x="1329" 
d="M680 1763q78 0 128 42.5t50 121.5h156q0 -139 -93 -222t-241 -83q-150 0 -243 83t-93 222h158q0 -79 50 -121.5t128 -42.5zM590 0h-184l188 395l-584 1141h193l485 -944l453 944h184z" />
    <glyph glyph-name="uni0410" unicode="&#x410;" horiz-adv-x="1427" 
d="M203 0h-174l587 1536h193l590 -1536h-185l-200 530h-611zM709 1337l-246 -649h491z" />
    <glyph glyph-name="uni0411" unicode="&#x411;" horiz-adv-x="1384" 
d="M799 0h-566v1536h941v-160h-766v-463h391q125 0 222.5 -35.5t157.5 -98.5t90.5 -144.5t30.5 -177.5q0 -211 -134 -334t-367 -123zM803 760h-395v-606h395q148 0 233.5 81t85.5 222q0 139 -86.5 221t-232.5 82z" />
    <glyph glyph-name="uni0412" unicode="&#x412;" horiz-adv-x="1433" 
d="M844 0h-611v1536h576q197 0 314.5 -104.5t117.5 -282.5q0 -122 -58 -209t-163 -131q140 -38 216.5 -138t76.5 -243q0 -196 -127.5 -312t-341.5 -116zM797 1384h-389v-514h395q122 0 193 72t71 191q0 115 -73.5 183t-196.5 68zM834 717h-426v-565h428q137 0 218 74t81 202
q0 130 -81.5 209.5t-219.5 79.5z" />
    <glyph glyph-name="uni0413" unicode="&#x413;" horiz-adv-x="1171" 
d="M408 0h-175v1536h920v-160h-745v-1376z" />
    <glyph glyph-name="uni0414" unicode="&#x414;" horiz-adv-x="1591" 
d="M178 -369h-168v529h133q63 72 99 172.5t58 298.5t30 532l8 373h991v-1376h195v-529h-168v369h-1178v-369zM506 1376l-6 -254q-12 -407 -50.5 -621.5t-127.5 -340.5h835v1216h-651z" />
    <glyph glyph-name="uni0415" unicode="&#x415;" horiz-adv-x="1263" 
d="M1200 0h-967v1536h947v-160h-772v-485h550v-160h-550v-571h792v-160z" />
    <glyph glyph-name="uni0416" unicode="&#x416;" horiz-adv-x="2009" 
d="M918 1536h172v-647h213l466 647h201l-526 -725l545 -811h-207l-488 727h-204v-727h-172v727h-203l-494 -727h-201l547 809l-530 727h201l473 -647h207v647z" />
    <glyph glyph-name="uni0417" unicode="&#x417;" horiz-adv-x="1345" 
d="M662 -16q-114 0 -211 26t-175 78t-130 136t-70 194l170 43q28 -161 137 -239.5t281 -78.5t277.5 78t105.5 221q0 130 -81.5 201.5t-240.5 71.5h-233v159h229q139 0 213 67.5t74 191.5q0 121 -95.5 191.5t-255.5 70.5q-144 0 -248.5 -68.5t-129.5 -202.5l-164 37
q43 190 191.5 290.5t350.5 100.5q244 0 385 -112q142 -115 142 -295q0 -111 -56 -200t-157 -140q120 -41 186 -138t66 -229q0 -206 -154.5 -330t-406.5 -124z" />
    <glyph glyph-name="uni0418" unicode="&#x418;" horiz-adv-x="1679" 
d="M399 0h-166v1536h170v-1272l877 1272h166v-1536h-170v1270z" />
    <glyph glyph-name="uni0419" unicode="&#x419;" horiz-adv-x="1679" 
d="M852 1763q79 0 129.5 42.5t50.5 121.5h156q0 -139 -93 -222t-243 -83q-148 0 -241 83t-93 222h158q0 -79 49.5 -121.5t126.5 -42.5zM399 0h-166v1536h170v-1272l877 1272h166v-1536h-170v1270z" />
    <glyph glyph-name="uni041A" unicode="&#x41a;" horiz-adv-x="1429" 
d="M627 727h-219v-727h-175v1536h175v-647h225l553 647h209l-619 -723l635 -813h-209z" />
    <glyph glyph-name="uni041B" unicode="&#x41b;" horiz-adv-x="1589" 
d="M16 4l29 148q7 -1 24 -5t27 -4q39 0 66 12t55 48t46.5 106t35.5 181.5t27 278.5t16 394l8 373h1006v-1536h-174v1376h-662l-8 -252q-6 -226 -17.5 -392t-32.5 -296t-49.5 -214t-71 -138.5t-95 -77t-123.5 -22.5q-45 0 -107 20z" />
    <glyph glyph-name="uni041C" unicode="&#x41c;" horiz-adv-x="1921" 
d="M401 0h-168v1536h187l545 -694l536 694h187v-1536h-168v1298l-541 -692h-39l-539 688v-1294z" />
    <glyph glyph-name="uni041D" unicode="&#x41d;" horiz-adv-x="1701" 
d="M408 0h-175v1536h175v-641h888v641h174v-1536h-174v735h-888v-735z" />
    <glyph glyph-name="uni041E" unicode="&#x41e;" horiz-adv-x="1736" 
d="M121 768q0 225 94 404t264.5 279.5t388.5 100.5q164 0 304 -59t237 -162t152 -248.5t55 -314.5q0 -168 -55 -313.5t-152 -249t-237 -162.5t-304 -59q-218 0 -388.5 101t-264.5 279.5t-94 403.5zM1436 768q0 277 -157 450t-411 173q-257 0 -412 -172.5t-155 -450.5
t155 -450.5t412 -172.5q254 0 411 173t157 450z" />
    <glyph glyph-name="uni041F" unicode="&#x41f;" horiz-adv-x="1677" 
d="M408 0h-175v1536h1213v-1536h-174v1376h-864v-1376z" />
    <glyph glyph-name="uni0420" unicode="&#x420;" horiz-adv-x="1372" 
d="M408 0h-175v1536h558q226 0 364.5 -130t138.5 -333q0 -201 -139 -334t-364 -133h-383v-606zM791 1376h-383v-610h383q151 0 239 85t88 222t-87.5 220t-239.5 83z" />
    <glyph glyph-name="uni0421" unicode="&#x421;" horiz-adv-x="1626" 
d="M301 768q0 -130 38.5 -243.5t109.5 -198.5t177.5 -134t235.5 -49q206 0 344.5 115.5t173.5 294.5l168 -45q-50 -236 -235.5 -381t-452.5 -145q-168 0 -308 60.5t-233.5 166.5t-145.5 250t-52 309q0 221 88.5 398t259 281.5t395.5 104.5q263 0 440 -141t228 -375l-166 -47
q-38 175 -168 287q-133 115 -336 115q-168 0 -297.5 -84.5t-196.5 -225t-67 -313.5z" />
    <glyph glyph-name="uni0422" unicode="&#x422;" horiz-adv-x="1241" 
d="M707 0h-175v1376h-491v160h1159v-160h-493v-1376z" />
    <glyph glyph-name="uni0423" unicode="&#x423;" horiz-adv-x="1335" 
d="M590 0h-184l188 395l-584 1141h193l485 -944l453 944h184z" />
    <glyph glyph-name="uni0424" unicode="&#x424;" horiz-adv-x="1767" 
d="M971 -27h-174v172h-9q-115 0 -220.5 27.5t-192.5 81.5t-151.5 129t-100 176t-35.5 217q0 144 55.5 263.5t151 198t223.5 122t273 43.5h6v160h174v-160h6q195 0 353 -73.5t253.5 -218t95.5 -335.5q0 -116 -35.5 -217t-100 -176t-152 -129t-193 -81.5t-221.5 -27.5h-6v-172
zM981 1245h-10v-942h10q146 0 262.5 53t188 162t71.5 258t-71.5 257t-188 160t-262.5 52zM786 303h11v942h-11q-146 0 -262.5 -52t-188 -160t-71.5 -257t71.5 -258t188 -162t262.5 -53z" />
    <glyph glyph-name="uni0425" unicode="&#x425;" horiz-adv-x="1355" 
d="M39 1536h205l436 -621l424 621h196l-524 -758l547 -778h-205l-454 647l-439 -647h-190l530 786z" />
    <glyph glyph-name="uni0426" unicode="&#x426;" horiz-adv-x="1679" 
d="M1444 0h-1211v1536h175v-1376h835v1376h174v-1376h193v-529h-166v369z" />
    <glyph glyph-name="uni0427" unicode="&#x427;" horiz-adv-x="1478" 
d="M670 596q-255 0 -399 119.5t-144 357.5v463h174v-424q0 -186 97 -270t296 -84q185 0 377 76v702h174v-1536h-174v674q-221 -78 -401 -78z" />
    <glyph glyph-name="uni0428" unicode="&#x428;" horiz-adv-x="2254" 
d="M2021 0h-1788v1536h175v-1376h632v1376h174v-1376h633v1376h174v-1536z" />
    <glyph glyph-name="uni0429" unicode="&#x429;" horiz-adv-x="2285" 
d="M2048 0h-1815v1536h175v-1376h632v1376h174v-1376h633v1376h174v-1376h195v-529h-168v369z" />
    <glyph glyph-name="uni042A" unicode="&#x42a;" horiz-adv-x="1523" 
d="M928 0h-510v1376h-412v160h586v-555h336q130 0 231.5 -38.5t163.5 -106t93.5 -154.5t31.5 -190q0 -227 -138.5 -359.5t-381.5 -132.5zM930 821h-338v-661h340q156 0 248 89.5t92 242.5q0 150 -92 239.5t-250 89.5z" />
    <glyph glyph-name="uni042B" unicode="&#x42b;" horiz-adv-x="1910" 
d="M1677 0h-174v1536h174v-1536zM723 0h-490v1536h175v-555h315q135 0 240.5 -38.5t170.5 -106t98.5 -155t33.5 -189.5q0 -226 -146 -359t-397 -133zM727 821h-319v-661h321q165 0 261.5 89.5t96.5 242.5q0 150 -97.5 239.5t-262.5 89.5z" />
    <glyph glyph-name="uni042C" unicode="&#x42c;" horiz-adv-x="1339" 
d="M723 0h-490v1536h175v-555h315q135 0 240.5 -38.5t170.5 -106t98.5 -155t33.5 -189.5q0 -226 -146 -359t-397 -133zM727 821h-319v-661h321q165 0 261.5 89.5t96.5 242.5q0 150 -97.5 239.5t-262.5 89.5z" />
    <glyph glyph-name="uni042D" unicode="&#x42d;" horiz-adv-x="1607" 
d="M662 698v160h643q-10 116 -50 213t-107 169.5t-165.5 113.5t-218.5 41q-203 0 -338 -111q-134 -110 -168 -285l-162 41q46 230 230 373q183 139 440 139q171 0 308.5 -60t226.5 -166t136.5 -248.5t47.5 -309.5q0 -169 -48.5 -312.5t-138.5 -249t-229 -165t-311 -59.5
q-275 0 -446.5 137.5t-219.5 378.5l170 43q32 -184 160.5 -292t339.5 -108q245 0 386 153t159 404h-645z" />
    <glyph glyph-name="uni042E" unicode="&#x42e;" horiz-adv-x="2304" 
d="M408 0h-175v1536h175v-651h286q37 297 239.5 482t502.5 185q164 0 303.5 -59t237 -162.5t152 -248.5t54.5 -314q0 -225 -93.5 -403.5t-264.5 -279.5t-389 -101q-210 0 -377 95.5t-263.5 263.5t-107.5 382h-280v-725zM2003 768q0 278 -156.5 450.5t-410.5 172.5
q-257 0 -412.5 -172.5t-155.5 -450.5t155.5 -450.5t412.5 -172.5q254 0 410.5 172.5t156.5 450.5z" />
    <glyph glyph-name="uni042F" unicode="&#x42f;" horiz-adv-x="1462" 
d="M1229 1536v-1536h-174v647h-355l-440 -647h-199l447 657q-155 20 -266 138q-109 115 -109 297q0 194 133 321q132 123 340 123h623zM606 807h449v569h-447q-133 0 -214 -78t-81 -206q0 -125 81.5 -205t211.5 -80z" />
    <glyph glyph-name="uni0430" unicode="&#x430;" horiz-adv-x="1087" 
d="M940 0h-147l-5 195q-63 -99 -163.5 -155t-216.5 -56q-143 0 -230.5 75t-87.5 203q0 145 111 219q107 70 291 117l292 68q-10 108 -79.5 164.5t-180.5 56.5q-113 0 -186.5 -52t-99.5 -151l-148 29q29 143 148 227t292 84q189 0 299.5 -103.5t110.5 -281.5v-639zM256 276
q0 -70 46.5 -112.5t127.5 -42.5q144 0 250 106t106 287v23l-294 -72q-120 -31 -178 -74t-58 -115z" />
    <glyph glyph-name="uni0431" unicode="&#x431;" horiz-adv-x="1243" 
d="M635 -16q-249 0 -390 176t-141 510q0 389 147 596t470 239l162 19q88 7 174 28l18 -139q-60 -19 -192 -35l-168 -18q-201 -21 -320 -146q-118 -127 -133 -411q78 128 197 174q113 45 221 45q206 0 340.5 -144.5t134.5 -371.5q0 -230 -144 -376t-376 -146zM641 881
q-156 0 -258 -105q-100 -106 -100 -270q0 -167 100 -270q99 -105 252 -105q152 0 254 105q98 104 98 270t-94.5 270.5t-251.5 104.5z" />
    <glyph glyph-name="uni0432" unicode="&#x432;" horiz-adv-x="1060" 
d="M643 0h-475v1008h455q137 0 219 -69t82 -189q0 -79 -39.5 -137.5t-108.5 -84.5q92 -24 142.5 -86.5t50.5 -158.5q0 -131 -94.5 -207t-231.5 -76zM600 874h-274v-290h284q75 0 115.5 39t40.5 108q0 143 -166 143zM326 135h280q97 0 147 41t50 119q0 75 -47.5 116.5
t-134.5 41.5h-295v-318z" />
    <glyph glyph-name="uni0433" unicode="&#x433;" horiz-adv-x="878" 
d="M328 0h-160v1008h670v-140h-510v-868z" />
    <glyph glyph-name="uni0434" unicode="&#x434;" horiz-adv-x="1148" 
d="M172 -317h-156v456h95q58 58 84.5 165.5t33.5 354.5l15 349h717v-869h137v-456h-156v317h-770v-317zM393 868l-8 -202q-12 -390 -106 -527h522v729h-408z" />
    <glyph glyph-name="uni0435" unicode="&#x435;" horiz-adv-x="1167" 
d="M88 510q0 223 143 368.5t361 145.5q216 0 350 -131q135 -132 135 -340q0 -1 -6 -82h-819q13 -169 103.5 -256.5t240.5 -87.5q133 0 217 56.5t111 156.5l147 -29q-32 -148 -162 -237.5t-313 -89.5q-230 0 -369 147.5t-139 378.5zM592 887q-136 0 -230 -79.5t-106 -203.5
h662q-8 125 -99 204t-227 79z" />
    <glyph glyph-name="uni0436" unicode="&#x436;" horiz-adv-x="1433" 
d="M39 1008h182l285 -408h133v408h154v-408h131l288 408h181l-346 -471l372 -537h-184l-317 457h-125v-457h-154v457h-127l-319 -457h-179l369 526z" />
    <glyph glyph-name="uni0437" unicode="&#x437;" horiz-adv-x="995" 
d="M483 -16q-164 0 -274.5 64.5t-153.5 195.5l152 53q25 -89 99.5 -131.5t178.5 -42.5q114 0 182 44.5t68 131.5q0 72 -52.5 112t-131.5 40h-184v137h172q75 0 122.5 38.5t47.5 108.5t-59 111t-167 41q-106 0 -174 -44t-88 -126l-151 43q37 123 145 193.5t270 70.5
q178 0 282.5 -76t104.5 -200q0 -76 -42 -135t-119 -85q92 -24 142 -84t50 -153q0 -101 -58 -171.5t-151 -103t-211 -32.5z" />
    <glyph glyph-name="uni0438" unicode="&#x438;" horiz-adv-x="1179" 
d="M322 0h-154v1008h154v-772l536 772h154v-1008h-154v772z" />
    <glyph glyph-name="uni0439" unicode="&#x439;" horiz-adv-x="1179" 
d="M598 1294q71 0 117 40.5t47 113.5h141q0 -128 -84.5 -203.5t-220.5 -75.5t-220 75.5t-85 203.5h143q0 -73 45.5 -113.5t116.5 -40.5zM322 0h-154v1008h154v-772l536 772h154v-1008h-154v772z" />
    <glyph glyph-name="uni043A" unicode="&#x43a;" horiz-adv-x="1056" 
d="M168 0v1008h160v-402h149l344 402h191l-408 -473l443 -535h-197l-381 451h-141v-451h-160z" />
    <glyph glyph-name="uni043B" unicode="&#x43b;" horiz-adv-x="1124" 
d="M6 -2l21 137q20 -4 39 -4q35 0 60 18.5t49.5 70t39.5 159.5t21 272l14 357h706v-1008h-161v868h-394l-8 -233q-7 -158 -25 -273t-44 -187.5t-64 -115.5t-79.5 -59t-96.5 -16q-40 0 -78 14z" />
    <glyph glyph-name="uni043C" unicode="&#x43c;" horiz-adv-x="1386" 
d="M322 0h-154v1008h166l358 -471l361 471h166v-1008h-154v795l-358 -469h-37l-348 460v-786z" />
    <glyph glyph-name="uni043D" unicode="&#x43d;" horiz-adv-x="1187" 
d="M328 0h-160v1008h160v-406h530v406h162v-1008h-162v461h-530v-461z" />
    <glyph glyph-name="uni043E" unicode="&#x43e;" horiz-adv-x="1216" 
d="M608 1024q226 0 373 -147t147 -371q0 -227 -147 -374.5t-373 -147.5t-373 147.5t-147 374.5q0 224 147 371t373 147zM608 877q-152 0 -252 -103t-100 -268q0 -167 100 -270q99 -105 252 -105q152 0 254 105q99 105 99 270q0 163 -99 268q-103 103 -254 103z" />
    <glyph glyph-name="uni043F" unicode="&#x43f;" horiz-adv-x="1175" 
d="M328 0h-160v1008h840v-1008h-162v868h-518v-868z" />
    <glyph glyph-name="uni0440" unicode="&#x440;" horiz-adv-x="1271" 
d="M168 -451v1459h154l4 -174q64 90 158.5 140t209.5 50q210 0 350 -147t140 -371q0 -226 -140 -374t-350 -148q-114 0 -208 48.5t-158 137.5v-621h-160zM672 877q-153 0 -248 -103q-96 -107 -96 -268q0 -163 96 -270q94 -105 248 -105q149 0 248 105q96 107 96 270
q0 161 -96 268q-100 103 -248 103z" />
    <glyph glyph-name="uni0441" unicode="&#x441;" horiz-adv-x="1128" 
d="M256 510q0 -165 96 -272q94 -107 244 -107q127 0 210 67.5t107 180.5l154 -27q-27 -157 -156 -262q-127 -106 -315 -106q-220 0 -364 149.5t-144 376.5q0 222 145 368t363 146q182 0 305.5 -96t159.5 -258l-156 -29q-27 108 -107.5 172t-199.5 64q-150 0 -244 -101
q-98 -101 -98 -266z" />
    <glyph glyph-name="uni0442" unicode="&#x442;" horiz-adv-x="944" 
d="M553 0h-162v868h-350v140h862v-140h-350v-868z" />
    <glyph glyph-name="uni0443" unicode="&#x443;" horiz-adv-x="1044" 
d="M455 8l-439 1000h181l346 -795l313 795h170l-588 -1459h-168z" />
    <glyph glyph-name="uni0444" unicode="&#x444;" horiz-adv-x="1402" 
d="M780 -451h-155v451q-238 3 -387 143q-150 138 -150 363q0 220 150 358q150 141 387 144v528h155v-528q240 -6 387 -144q146 -140 146 -358q0 -221 -146 -361q-148 -139 -387 -145v-451zM252 506q0 -166 98.5 -264.5t274.5 -102.5v729q-175 -4 -274 -101.5t-99 -260.5z
M1149 506q0 162 -98.5 260t-270.5 102v-729q172 4 270.5 103t98.5 264z" />
    <glyph glyph-name="uni0445" unicode="&#x445;" horiz-adv-x="960" 
d="M25 1008h190l266 -371l252 371h180l-342 -494l369 -514h-188l-287 397l-266 -397h-174l350 522z" />
    <glyph glyph-name="uni0446" unicode="&#x446;" horiz-adv-x="1181" 
d="M977 0h-809v1008h160v-869h506v869h161v-869h135v-456h-153v317z" />
    <glyph glyph-name="uni0447" unicode="&#x447;" horiz-adv-x="1067" 
d="M479 375q-190 0 -288.5 88.5t-98.5 251.5v293h160v-269q0 -110 63.5 -166.5t186.5 -56.5t235 37v455h162v-1008h-162v414q-131 -39 -258 -39z" />
    <glyph glyph-name="uni0448" unicode="&#x448;" horiz-adv-x="1613" 
d="M1448 0h-1280v1008h160v-869h399v869h160v-869h399v869h162v-1008z" />
    <glyph glyph-name="uni0449" unicode="&#x449;" horiz-adv-x="1634" 
d="M1427 0h-1259v1008h160v-869h399v869h160v-869h399v869h162v-869h135v-456h-156v317z" />
    <glyph glyph-name="uni044A" unicode="&#x44a;" horiz-adv-x="1093" 
d="M694 0h-430v868h-260v140h420v-338h270q160 0 257.5 -92t97.5 -244q0 -150 -98 -242t-257 -92zM666 528h-242v-389h242q104 0 159.5 50.5t55.5 144.5t-55.5 144t-159.5 50z" />
    <glyph glyph-name="uni044B" unicode="&#x44b;" horiz-adv-x="1421" 
d="M1253 0h-159v1008h159v-1008zM598 0h-430v1008h160v-338h270q160 0 257 -92t97 -244q0 -150 -97.5 -242t-256.5 -92zM569 528h-241v-389h241q104 0 159.5 50.5t55.5 144.5t-55.5 144t-159.5 50z" />
    <glyph glyph-name="uni044C" unicode="&#x44c;" horiz-adv-x="997" 
d="M598 0h-430v1008h160v-338h270q160 0 257 -92t97 -244q0 -150 -97.5 -242t-256.5 -92zM569 528h-241v-389h241q104 0 159.5 50.5t55.5 144.5t-55.5 144t-159.5 50z" />
    <glyph glyph-name="uni044D" unicode="&#x44d;" horiz-adv-x="1134" 
d="M1044 498q0 -227 -136 -370.5t-367 -143.5q-184 0 -309 93t-164 253l153 37q30 -112 113.5 -176t206.5 -64q149 0 237.5 87t102.5 232h-400v136h396q-21 137 -110 218t-228 81q-130 0 -214.5 -63.5t-105.5 -166.5l-151 33q31 151 157.5 245.5t313.5 94.5
q230 0 367.5 -147.5t137.5 -378.5z" />
    <glyph glyph-name="uni044E" unicode="&#x44e;" horiz-adv-x="1632" 
d="M328 0h-160v1008h160v-406h182q30 182 172 303q137 119 340 119q226 0 373 -147t147 -371q0 -227 -147 -374.5t-373 -147.5q-214 0 -357.5 132.5t-160.5 344.5h-176v-461zM1022 877q-152 0 -252 -103t-100 -268q0 -167 100 -270q99 -105 252 -105q152 0 254 105
q98 104 98 270q0 164 -98 268q-103 103 -254 103z" />
    <glyph glyph-name="uni044F" unicode="&#x44f;" horiz-adv-x="1087" 
d="M115 698q0 136 87.5 223t227.5 87h490v-1008h-158v395h-225l-295 -395h-181l306 406q-113 19 -182.5 97.5t-69.5 194.5zM469 530h293v344h-291q-91 0 -143 -43.5t-52 -128.5t51.5 -128.5t141.5 -43.5z" />
    <glyph glyph-name="uni0451" unicode="&#x451;" horiz-adv-x="1167" 
d="M88 510q0 223 143 368.5t361 145.5q216 0 350 -131q135 -132 135 -340q0 -1 -6 -82h-819q13 -169 103.5 -256.5t240.5 -87.5q133 0 217 56.5t111 156.5l147 -29q-32 -148 -162 -237.5t-313 -89.5q-230 0 -369 147.5t-139 378.5zM592 887q-136 0 -230 -79.5t-106 -203.5
h662q-8 125 -99 204t-227 79zM393 1249q-44 0 -75 31.5t-31 75.5t31 74t75 30t74.5 -30t30.5 -74t-30.5 -75.5t-74.5 -31.5zM772 1249q-44 0 -75 31.5t-31 75.5t31 74t75 30q45 0 76 -30t31 -74t-31.5 -75.5t-75.5 -31.5z" />
    <glyph glyph-name="uni0453" unicode="&#x453;" horiz-adv-x="878" 
d="M373 1171l205 283h206l-262 -283h-149zM328 0h-160v1008h670v-140h-510v-868z" />
    <glyph glyph-name="uni045E" unicode="&#x45e;" horiz-adv-x="1044" 
d="M455 8l-439 1000h181l346 -795l313 795h170l-588 -1459h-168zM528 1294q71 0 117 40.5t47 113.5h142q0 -128 -84.5 -203.5t-221.5 -75.5q-136 0 -220 75.5t-85 203.5h144q0 -73 45 -113.5t116 -40.5z" />
    <glyph glyph-name="uni0490" unicode="&#x490;" horiz-adv-x="1171" 
d="M408 0h-175v1536h754v330h166v-490h-745v-1376z" />
    <glyph glyph-name="Wgrave" unicode="&#x1e80;" horiz-adv-x="1931" 
d="M532 223l410 821h43l414 -819l293 1311h174l-342 -1536h-191l-370 735l-367 -735h-188l-342 1536h174zM979 1657l-262 282h207l202 -282h-147z" />
    <glyph glyph-name="wgrave" unicode="&#x1e81;" horiz-adv-x="1357" 
d="M285 0l-240 1008h162l192 -815l267 528h28l269 -533l192 820h158l-240 -1008h-174l-219 436l-221 -436h-174zM690 1171l-262 283h207l203 -283h-148z" />
    <glyph glyph-name="Wacute" unicode="&#x1e82;" horiz-adv-x="1931" 
d="M532 223l410 821h43l414 -819l293 1311h174l-342 -1536h-191l-370 735l-367 -735h-188l-342 1536h174zM844 1657l205 282h206l-262 -282h-149z" />
    <glyph glyph-name="wacute" unicode="&#x1e83;" horiz-adv-x="1357" 
d="M285 0l-240 1008h162l192 -815l267 528h28l269 -533l192 820h158l-240 -1008h-174l-219 436l-221 -436h-174zM555 1171l205 283h207l-262 -283h-150z" />
    <glyph glyph-name="Wdieresis" unicode="&#x1e84;" horiz-adv-x="1931" 
d="M532 223l410 821h43l414 -819l293 1311h174l-342 -1536h-191l-370 735l-367 -735h-188l-342 1536h174zM778 1735q-44 0 -75 31t-31 75t31 74.5t75 30.5t74.5 -30.5t30.5 -74.5t-30.5 -75t-74.5 -31zM1157 1735q-44 0 -75 31t-31 75t31 74.5t75 30.5t75.5 -30.5
t31.5 -74.5t-31.5 -75t-75.5 -31z" />
    <glyph glyph-name="wdieresis" unicode="&#x1e85;" horiz-adv-x="1357" 
d="M285 0l-240 1008h162l192 -815l267 528h28l269 -533l192 820h158l-240 -1008h-174l-219 436l-221 -436h-174zM489 1249q-44 0 -75 31.5t-31 75.5t31 74t75 30t74.5 -30t30.5 -74t-30.5 -75.5t-74.5 -31.5zM868 1249q-44 0 -75 31.5t-31 75.5t31 74t75 30q45 0 76 -30
t31 -74t-31.5 -75.5t-75.5 -31.5z" />
    <glyph glyph-name="Ygrave" unicode="&#x1ef2;" horiz-adv-x="1337" 
d="M758 0h-174v680l-568 856h205l455 -690l450 690h197l-565 -856v-680zM682 1700l-262 282h207l202 -282h-147z" />
    <glyph glyph-name="ygrave" unicode="&#x1ef3;" horiz-adv-x="1044" 
d="M455 8l-439 1000h181l346 -795l313 795h170l-588 -1459h-168zM520 1171l-262 283h207l203 -283h-148z" />
    <glyph glyph-name="endash" unicode="&#x2013;" horiz-adv-x="1024" 
d="M983 524h-942v154h942v-154z" />
    <glyph glyph-name="i001" 
d="M360 1354q0 -47 -32.5 -79t-79.5 -32t-79 32t-32 79q0 49 31.5 79.5t79.5 30.5t80 -30.5t32 -79.5zM328 0h-160v1008h160v-1008z" />
    <glyph glyph-name="_226" horiz-adv-x="1212" 
d="M483 1171l205 283h207l-262 -283h-150z" />
    <glyph glyph-name="_227" horiz-adv-x="1212" 
d="M618 1171l-262 283h207l203 -283h-148z" />
    <glyph glyph-name="_228" horiz-adv-x="1212" 
d="M952 1171h-170l-176 172l-178 -172h-166l262 283h164z" />
    <glyph glyph-name="_229" horiz-adv-x="1212" 
d="M608 1280l178 174h166l-264 -283h-164l-262 283h168z" />
    <glyph glyph-name="_230" horiz-adv-x="1212" 
d="M739 1200q-38 0 -72.5 18t-56 39.5t-49.5 39.5t-55 18q-83 0 -80 -119h-121q-4 115 42 180.5t128 65.5q37 0 74 -17.5t61 -39t52.5 -39t52.5 -17.5q79 0 76 113h120q7 -112 -40 -177t-132 -65z" />
    <glyph glyph-name="_231" horiz-adv-x="1212" 
d="M418 1249q-44 0 -75.5 31.5t-31.5 75.5t31 74t76 30q44 0 74 -30t30 -74q0 -45 -30 -76t-74 -31zM797 1249q-44 0 -75.5 31.5t-31.5 75.5t31 74t76 30q44 0 75 -30t31 -74t-31 -75.5t-75 -31.5z" />
    <glyph glyph-name="_232" horiz-adv-x="1179" 
d="M586 1526q86 0 142 -51t56 -132t-56.5 -134.5t-141.5 -53.5t-141 52.5t-56 133.5t56 133t141 52zM485 1341q0 -44 28.5 -72t72.5 -28t72 28t28 72q0 43 -28 71t-72 28t-72.5 -28t-28.5 -71z" />
    <glyph glyph-name="_233" horiz-adv-x="1173" 
d="M702 1454l-206 -283h-131l167 283h170zM1001 1454l-221 -283h-135l176 283h180z" />
    <glyph glyph-name="_234" horiz-adv-x="1212" 
d="M606 1294q71 0 117 40.5t47 113.5h141q0 -128 -84.5 -203.5t-220.5 -75.5t-220 75.5t-85 203.5h143q0 -73 45.5 -113.5t116.5 -40.5z" />
    <glyph glyph-name="_235" horiz-adv-x="1212" 
d="M313 1266v137h586v-137h-586z" />
    <glyph glyph-name="_236" horiz-adv-x="1142" 
d="M571 1243q-47 0 -79.5 32t-32.5 79q0 49 32 79.5t80 30.5t80.5 -30.5t32.5 -79.5q0 -47 -33 -79t-80 -32z" />
    <glyph glyph-name="_237" horiz-adv-x="952" 
d="M326 -420l118 291h170l-170 -291h-118z" />
    <glyph glyph-name="_238" horiz-adv-x="962" 
d="M344 1141l170 291h119l-117 -291h-172z" />
    </font>
</defs>
</svg>
